<?xml version="1.0" encoding="utf-8"?>
<!-- Generator: Adobe Illustrator 15.0.2, SVG Export Plug-In . SVG Version: 6.00 Build 0)  -->
<!DOCTYPE svg PUBLIC "-//W3C//DTD SVG 1.1//EN" "http://www.w3.org/Graphics/SVG/1.1/DTD/svg11.dtd">
<svg version="1.1" id="图层_1" xmlns="http://www.w3.org/2000/svg" xmlns:xlink="http://www.w3.org/1999/xlink" x="0px" y="0px"
	 width="24px" height="24px" viewBox="0 0 24 24" enable-background="new 0 0 24 24" xml:space="preserve">
<g id="图层_3">
	<g>
		<path fill="#4D4D4D" d="M12.77,4.103c0-0.821,0-1.32,0-1.32c0-0.445-0.36-0.812-0.807-0.812c-0.449,0-0.811,0.366-0.811,0.812
			c0,0,0,0.499,0,1.328C6.14,4.501,2.173,8.347,1.963,13.18c-0.001,0.076,0.048,0.146,0.12,0.17
			c0.074,0.019,0.151-0.017,0.186-0.086c0.548-1.048,1.741-1.729,3.035-1.729c1.472,0,2.757,0.846,3.194,2.096
			c0.047,0.131,0.262,0.131,0.305,0c0.355-1.007,1.251-1.737,2.35-1.994c0,3.582,0,7.528,0,7.528c0,0.683-0.549,1.226-1.229,1.226
			c-0.678,0-1.228-0.543-1.228-1.226c0-0.444-0.364-0.81-0.81-0.81c-0.447,0-0.808,0.363-0.808,0.81
			c0,1.567,1.276,2.847,2.845,2.847c1.569,0,2.847-1.279,2.847-2.847c0,0,0-3.964,0-7.547c1.139,0.232,2.07,0.981,2.432,2.013
			c0.021,0.069,0.083,0.111,0.15,0.111s0.129-0.042,0.152-0.111c0.438-1.25,1.725-2.096,3.196-2.096c1.294,0,2.483,0.682,3.03,1.729
			c0.039,0.069,0.115,0.104,0.188,0.086c0.076-0.023,0.123-0.094,0.119-0.17C21.829,8.32,17.82,4.459,12.77,4.103z"/>
	</g>
</g>
</svg>
