<?xml version="1.0" encoding="utf-8"?>
<!-- Generator: Adobe Illustrator 15.0.2, SVG Export Plug-In . SVG Version: 6.00 Build 0)  -->
<!DOCTYPE svg PUBLIC "-//W3C//DTD SVG 1.1//EN" "http://www.w3.org/Graphics/SVG/1.1/DTD/svg11.dtd">
<svg version="1.1" id="图层_1" xmlns="http://www.w3.org/2000/svg" xmlns:xlink="http://www.w3.org/1999/xlink" x="0px" y="0px"
	 width="24px" height="24px" viewBox="0 0 24 24" enable-background="new 0 0 24 24" xml:space="preserve">
<g id="图层_3">
	<g>
		<path fill="#4D4D4D" d="M17,21.014V19.01h-0.998v2.004h-3.994V4.02l3.008-0.006V2.986H18v1.027l2.996,0.006v16.995H17L17,21.014z
			 M16.016,6.025h-2.004v2.002h2.004V6.025z M16.016,8.998h-2.004V11h2.004V8.998z M16.016,12.002h-2.004v1.971h2.004V12.002z
			 M16.016,14.975h-2.004v2.032h2.004V14.975z M18.992,6.025H17.02v2.002h1.974L18.992,6.025L18.992,6.025z M18.992,9.029H17.02V11
			h1.974L18.992,9.029L18.992,9.029z M18.992,11.971H17.02v2.033h1.974L18.992,11.971L18.992,11.971z M18.992,15.005H17.02v2.002
			h1.974L18.992,15.005L18.992,15.005z M6.998,18.988H6.012v2.025H2.004V9.988h2.01V8.992H6.01v0.996h1.006V8.992h1.998v0.996h1.992
			L11,21.014H6.998V18.988z M6.012,12.002H4.008v2.002h2.004V12.002z M6.012,15.005H4.008v2.002h2.004V15.005z M9.02,12.002H7.016
			v2.002H9.02V12.002z M9.02,15.005H7.016v1.972H9.02V15.005z"/>
	</g>
</g>
</svg>
