<?xml version="1.0" encoding="utf-8"?>
<!-- Generator: Adobe Illustrator 15.0.2, SVG Export Plug-In . SVG Version: 6.00 Build 0)  -->
<!DOCTYPE svg PUBLIC "-//W3C//DTD SVG 1.1//EN" "http://www.w3.org/Graphics/SVG/1.1/DTD/svg11.dtd">
<svg version="1.1" id="图层_1" xmlns="http://www.w3.org/2000/svg" xmlns:xlink="http://www.w3.org/1999/xlink" x="0px" y="0px"
	 width="24px" height="24px" viewBox="0 0 24 24" enable-background="new 0 0 24 24" xml:space="preserve">
<g id="图层_3">
	<g>
		<path fill="#4D4D4D" d="M13.545,2.076c1.186,0.316,1.887,1.533,1.57,2.718c-0.318,1.184-1.535,1.887-2.719,1.568
			c-1.184-0.317-1.886-1.533-1.569-2.718C11.145,2.46,12.362,1.759,13.545,2.076z"/>
		<path fill="#4D4D4D" d="M5.559,8.881c-0.12-0.229-0.19-0.488-0.19-0.765c0-0.919,0.745-1.664,1.665-1.664
			c0.002,0-0.147,0.004,0.006,0c0.153-0.003,1.029,0.125,1.029,0.125l1.62-2.087L7.047,4.575L5.562,2.389L4.827,4.927L2.289,5.662
			l2.187,1.484L4.391,9.789L5.559,8.881z"/>
		<path fill="#4D4D4D" d="M6.97,13.211l-0.913-0.33l-0.769,0.598l0.032-0.973L4.516,11.96l0.934-0.271l0.27-0.934l0.546,0.804
			l0.972-0.03l-0.596,0.768L6.97,13.211z"/>
		<path fill="#4D4D4D" d="M20.682,14.039l-1.188-0.826l-1.334,0.562l0.42-1.385l-0.947-1.095l1.447-0.029l0.748-1.237l0.475,1.366
			l1.408,0.33L20.559,12.6L20.682,14.039z"/>
		<path fill="#4D4D4D" d="M21.24,6.067c-0.157-0.592-0.766-0.944-1.357-0.786c-0.131,0.035-0.246,0.095-0.352,0.169
			c0,0-3.438,1.918-8.573,1.995C9.031,7.474,7.402,7.009,7.402,7.009c-0.114-0.04-0.233-0.065-0.36-0.065
			C6.43,6.942,5.932,7.438,5.931,8.052C5.93,8.664,6.427,9.162,7.039,9.163c0.003,0,1.194,0.082,3.051,0.123
			c0.56,0.013,1.116,0,1.667-0.029l-1.316,4.888l4.2,1.135l-1.427,5.326c-0.157,0.592,0.192,1.197,0.783,1.355
			c0.592,0.159,1.198-0.189,1.358-0.779c0,0,1.668-6.402,1.674-6.418c0.158-0.591-0.19-1.197-0.78-1.357l-3.073-0.834l0.958-3.554
			c3.616-0.521,5.914-1.434,6.437-1.635C21.089,7.18,21.389,6.619,21.24,6.067z"/>
		<path fill="#4D4D4D" d="M10.19,15.082l-0.142,0.531L5.003,14.26c-0.075-0.039-0.154-0.074-0.24-0.098
			c-0.591-0.158-1.199,0.191-1.358,0.783c-0.158,0.593,0.193,1.201,0.784,1.361c0.024,0.006,5.889,1.574,6.433,1.721
			c0.546,0.146,1.143-0.223,1.297-0.791l0.586-2.164L10.19,15.082z"/>
	</g>
</g>
</svg>
