<?xml version="1.0" encoding="utf-8"?>
<!-- Generator: Adobe Illustrator 15.0.2, SVG Export Plug-In . SVG Version: 6.00 Build 0)  -->
<!DOCTYPE svg PUBLIC "-//W3C//DTD SVG 1.1//EN" "http://www.w3.org/Graphics/SVG/1.1/DTD/svg11.dtd">
<svg version="1.1" id="图层_1" xmlns="http://www.w3.org/2000/svg" xmlns:xlink="http://www.w3.org/1999/xlink" x="0px" y="0px"
	 width="24px" height="24px" viewBox="0 0 24 24" enable-background="new 0 0 24 24" xml:space="preserve">
<g id="图层_3">
	<path fill="#4D4D4D" d="M22.514,13.579c-0.766-0.767-5.525-2.973-8.086-4.131l0.155-2.213c0-1.485-1.136-5.225-2.534-5.225
		c-1.4,0-2.535,3.739-2.535,5.225l0.151,2.171c-2.535,1.143-7.403,3.397-8.18,4.173c-1.056,1.056,0,2.164,0,2.164
		s4.648-0.984,6.338-0.984c0.801,0,1.597,0,2.217,0l0.257,3.66c-0.997,0.776-2.372,1.89-2.372,2.115
		c0,0.351,0.114,1.125,0.114,1.125s1.81-0.204,2.794-0.263c0.295,0.359,0.728,0.592,1.216,0.592c0.485,0,0.913-0.229,1.21-0.586
		c1,0.064,2.693,0.257,2.693,0.257s0.114-0.774,0.114-1.125c0-0.218-1.289-1.267-2.272-2.038l0.261-3.737c0.607,0,1.359,0,2.122,0
		c1.689,0,6.337,0.984,6.337,0.984S23.57,14.635,22.514,13.579z"/>
</g>
</svg>
