<?xml version="1.0" encoding="utf-8"?>
<!-- Generator: Adobe Illustrator 15.0.2, SVG Export Plug-In . SVG Version: 6.00 Build 0)  -->
<!DOCTYPE svg PUBLIC "-//W3C//DTD SVG 1.1//EN" "http://www.w3.org/Graphics/SVG/1.1/DTD/svg11.dtd">
<svg version="1.1" id="图层_1" xmlns="http://www.w3.org/2000/svg" xmlns:xlink="http://www.w3.org/1999/xlink" x="0px" y="0px"
	 width="24px" height="24px" viewBox="0 0 24 24" enable-background="new 0 0 24 24" xml:space="preserve">
<g id="图层_3">
	<g>
		<path fill="#4D4D4D" d="M3.943,7.943l1.033,1.188v10.723l-1.97,1.152L3.943,7.943z"/>
		<path fill="#4D4D4D" d="M19.965,8.012h-3.031c0-0.014,0.004-0.025,0.004-0.039c0-2.75-2.229-4.979-4.979-4.979
			s-4.98,2.229-4.98,4.979c0,0.014,0.004,0.025,0.004,0.039h-1.04l1.061,12.994h13.991L19.965,8.012z M9.025,7.973
			c0-1.637,1.326-2.963,2.963-2.963c1.637,0,2.963,1.326,2.963,2.963c0,0.014-0.004,0.025-0.004,0.039H9.029
			C9.029,7.998,9.025,7.986,9.025,7.973z M16.566,14.643c-0.006,0.025-0.014,0.051-0.032,0.072
			c-0.388,0.428-2.691,2.971-2.691,2.971s-1.963-1.793-3.312-3.024c-0.035-0.033-0.055-0.065-0.065-0.103
			c-0.245-0.309-0.409-0.682-0.448-1.086c-0.098-1.044,0.669-1.891,1.714-1.891c0.634,0,1.221,0.314,1.609,0.793
			c0.298-0.479,0.826-0.793,1.46-0.793c1.045,0,1.973,0.846,2.071,1.891C16.914,13.918,16.793,14.32,16.566,14.643z"/>
	</g>
</g>
</svg>
