<?xml version="1.0" encoding="utf-8"?>
<!-- Generator: Adobe Illustrator 15.0.2, SVG Export Plug-In . SVG Version: 6.00 Build 0)  -->
<!DOCTYPE svg PUBLIC "-//W3C//DTD SVG 1.1//EN" "http://www.w3.org/Graphics/SVG/1.1/DTD/svg11.dtd">
<svg version="1.1" id="图层_1" xmlns="http://www.w3.org/2000/svg" xmlns:xlink="http://www.w3.org/1999/xlink" x="0px" y="0px"
	 width="24px" height="24px" viewBox="0 0 24 24" enable-background="new 0 0 24 24" xml:space="preserve">
<g id="图层_3">
	<g>
		<path fill="#4D4D4D" d="M20.884,3.283c-0.204-0.195-0.534-0.195-0.737,0c-0.03,0.029-0.047,0.064-0.067,0.098l-6.8,6.512
			c-0.059,0.046-0.121,0.086-0.176,0.139c-0.056,0.053-0.098,0.112-0.146,0.169l-0.498,0.478l0.004,0.005
			c-2.453,2.351-6.707,6.427-7.767,7.442c-0.04,0.03-0.113,0.114-0.15,0.149c-0.61,0.586-0.579,1.557,0.031,2.142
			c0.505,0.483,1.233,0.582,1.828,0.267c0.156-0.078,0.227-0.146,0.296-0.213c0.367-0.353,4.112-4.55,6.657-7.41
			c0.404,0.279,0.887,0.4,1.361,0.369c0.338,0.098,0.775,0.016,1.318-0.505c2.119-2.03,4.762-6.878,4.958-9.099
			C21.074,3.645,21.036,3.43,20.884,3.283z"/>
		<g>
			<path fill="#4D4D4D" d="M13.359,13.061c0.363,0.25,0.789,0.373,1.216,0.373c0.034,0,0.067-0.002,0.103-0.004
				c-1.508-1.232-2.94-2.402-3.789-3.095c0.574-0.901,0.493-2.066-0.232-2.895l0.03-0.029L6.829,3.715L6.823,3.72
				C6.822,3.719,6.822,3.718,6.821,3.717c-0.203-0.195-0.533-0.195-0.736,0c-0.203,0.195-0.203,0.512,0,0.707
				c0.001,0.001,0.002,0.001,0.002,0.002l2.239,2.146c-0.004,0-0.008,0.001-0.012,0.002c0.191,0.195,0.19,0.501-0.009,0.692
				C8.104,7.46,7.776,7.46,7.572,7.269L7.571,7.27L5.345,5.137L5.34,5.142C5.339,5.141,5.339,5.14,5.338,5.139
				c-0.204-0.195-0.533-0.195-0.737,0c-0.203,0.195-0.203,0.512,0,0.706c0.001,0.001,0.002,0.001,0.003,0.002L4.603,5.848L6.83,7.98
				L6.823,7.985C7.024,8.18,7.024,8.494,6.821,8.688c-0.199,0.19-0.52,0.192-0.724,0.009c0,0.001-0.001,0.002-0.001,0.003
				L3.861,6.559L3.856,6.563C3.855,6.562,3.855,6.562,3.854,6.561c-0.204-0.195-0.533-0.195-0.737,0
				c-0.204,0.195-0.204,0.511,0,0.706C3.118,7.268,3.119,7.268,3.12,7.269L3.119,7.27l3.858,3.695l0.025-0.024
				c0.866,0.697,2.086,0.773,3.027,0.22c0.585,0.658,1.499,1.687,2.51,2.819C12.818,13.668,13.104,13.35,13.359,13.061z"/>
			<path fill="#4D4D4D" d="M20.667,18.456c-0.015-0.052-0.036-0.099-0.075-0.136c-0.258-0.246-2.503-2.096-4.851-4.02
				c-0.255,0.102-0.511,0.162-0.769,0.162c-0.115,0-0.23-0.01-0.345-0.031c-0.019,0.002-0.035,0.002-0.054,0.002
				c-0.332,0-0.657-0.052-0.967-0.149c-0.139,0.155-0.267,0.3-0.398,0.448c2.121,2.379,4.441,4.972,5.034,5.595
				c0.004,0.004,0.007,0.009,0.011,0.013c0.001,0.001,0.003,0.001,0.004,0.004c0.042,0.043,0.086,0.09,0.107,0.109
				c0.049,0.047,0.113,0.066,0.188,0.076c0.602,0.357,1.391,0.312,1.913-0.189C21.001,19.828,21.066,19.038,20.667,18.456z"/>
		</g>
	</g>
</g>
</svg>
