<?xml version="1.0" encoding="utf-8"?>
<!-- Generator: Adobe Illustrator 15.0.2, SVG Export Plug-In . SVG Version: 6.00 Build 0)  -->
<!DOCTYPE svg PUBLIC "-//W3C//DTD SVG 1.1//EN" "http://www.w3.org/Graphics/SVG/1.1/DTD/svg11.dtd">
<svg version="1.1" id="图层_1" xmlns="http://www.w3.org/2000/svg" xmlns:xlink="http://www.w3.org/1999/xlink" x="0px" y="0px"
	 width="24px" height="24px" viewBox="0 0 24 24" enable-background="new 0 0 24 24" xml:space="preserve">
<g id="图层_3">
	<g>
		<path fill="#4D4D4D" d="M12.689,6.11c0-0.329-0.102-0.436-0.235-0.446V5.147h-0.115c0.065-0.079,0.109-0.14,0.109-0.14
			c0-0.007,0-0.058,0-0.335c0-0.413-0.688-0.723-1.031-0.723c-0.344,0-0.344,0.619-0.344,0.619s0.48,0.17,0.48,0.37
			c0,0.079,0.004,0.147,0.01,0.208H4.386c0.006-0.061,0.01-0.129,0.01-0.208c0-0.2,0.482-0.37,0.482-0.37s0-0.619-0.344-0.619
			c-0.345,0-1.033,0.31-1.033,0.723c0,0.277,0,0.328,0,0.335c0,0,0.058,0.08,0.143,0.177v0.473C3.526,5.632,3.432,5.73,3.432,6.11
			c0,2.509-3.248,2.339-3.248,2.339s0.633,0.826,1.94,0.826c0.677,0,1.185,0,1.52,0V20.05h2.658v-2.978h2.641v2.978h3.512V9.275
			c0.398,0,0.932,0,1.542,0c1.312,0,2.135-0.826,2.135-0.826S12.689,8.588,12.689,6.11z M6.292,13.451H4.53v-1.698h1.762V13.451z
			 M6.292,10.793H4.53V9.094h1.762V10.793z M8.952,10.793H7.188V9.094h1.764V10.793z M11.609,16.109H9.846v-1.697h1.764
			L11.609,16.109L11.609,16.109z"/>
		<path fill="#4D4D4D" d="M20.568,12.88c0-0.3-0.088-0.414-0.202-0.441v-0.291h-0.375c0.181-0.157,0.335-0.369,0.335-0.369
			c0-0.007,0-0.059,0-0.336c0-0.413-0.688-0.723-1.033-0.723c-0.342,0-0.342,0.619-0.342,0.619s0.48,0.171,0.48,0.371
			c0,0.205,0.024,0.343,0.062,0.438h-6.039v7.893h2.597v-2.969h2.641v2.969h1.676v-3.994c0.395,0,0.914,0,1.51,0
			c1.307,0,1.939-0.826,1.939-0.826S20.568,15.562,20.568,12.88z"/>
	</g>
</g>
</svg>
