<?xml version="1.0" encoding="utf-8"?>
<!-- Generator: Adobe Illustrator 15.0.2, SVG Export Plug-In . SVG Version: 6.00 Build 0)  -->
<!DOCTYPE svg PUBLIC "-//W3C//DTD SVG 1.1//EN" "http://www.w3.org/Graphics/SVG/1.1/DTD/svg11.dtd">
<svg version="1.1" id="图层_3" xmlns="http://www.w3.org/2000/svg" xmlns:xlink="http://www.w3.org/1999/xlink" x="0px" y="0px"
	 width="24px" height="24px" viewBox="0 0 24 24" enable-background="new 0 0 24 24" xml:space="preserve">
<path fill="#4D4D4D" d="M21.688,16.189l-0.024-0.057c-0.042-0.087-4.282-8.856-5.762-11.736c-1.577-3.073-3.293-3.292-3.9-3.262
	C11.396,1.104,9.679,1.32,8.098,4.396C6.619,7.276,2.38,16.046,2.337,16.133l-0.024,0.057C2.27,16.302,1.25,18.987,2.987,21.16
	c1.304,1.629,2.824,1.708,3.572,1.708c0.043,0,0.083,0,0.121-0.001h0.088c0.796,0,2.799-0.308,5.231-2.951
	c2.433,2.644,4.437,2.951,5.231,2.951h0.088c0.038,0.001,0.078,0.001,0.122,0.001c0.747,0,2.269-0.079,3.571-1.708
	C22.751,18.987,21.731,16.302,21.688,16.189z M11.838,10.494l0.001,0.007c0.055-0.003,0.108-0.003,0.161-0.004
	c0.054,0.001,0.106,0.001,0.161,0.004v-0.007c0.641,0.009,1.134,0.17,1.47,0.485c0.548,0.516,0.607,1.369,0.607,1.713
	c0,1.221-0.755,2.834-2.238,4.796c-1.484-1.962-2.238-3.575-2.238-4.796c0-0.344,0.06-1.197,0.608-1.713
	C10.705,10.664,11.199,10.503,11.838,10.494z M19.806,20.194c-0.909,1.138-1.891,1.132-2.476,1.128l-0.099-0.001
	c-0.335,0-2.019-0.135-4.229-2.602c1.869-2.399,2.782-4.375,2.782-6.027c0-0.676-0.142-1.942-1.096-2.84
	c-0.662-0.621-1.566-0.922-2.688-0.9c-1.122-0.021-2.026,0.279-2.689,0.9c-0.953,0.897-1.095,2.164-1.095,2.84
	c0,1.652,0.911,3.628,2.781,6.027c-2.21,2.467-3.895,2.602-4.229,2.602L6.67,21.322c-0.586,0.003-1.566,0.01-2.476-1.128
	c-1.108-1.385-0.523-3.21-0.449-3.422c0.294-0.606,4.305-8.897,5.729-11.67c1.289-2.509,2.443-2.424,2.453-2.424
	c-0.003-0.001-0.005-0.001-0.009-0.002c0.086,0,0.167,0.001,0.154,0.002c0.011,0,1.166-0.085,2.454,2.424
	c1.425,2.774,5.442,11.079,5.729,11.672C20.334,16.994,20.924,18.796,19.806,20.194z"/>
</svg>
