<?xml version="1.0" encoding="utf-8"?>
<!-- Generator: Adobe Illustrator 15.0.2, SVG Export Plug-In . SVG Version: 6.00 Build 0)  -->
<!DOCTYPE svg PUBLIC "-//W3C//DTD SVG 1.1//EN" "http://www.w3.org/Graphics/SVG/1.1/DTD/svg11.dtd">
<svg version="1.1" id="图层_1" xmlns="http://www.w3.org/2000/svg" xmlns:xlink="http://www.w3.org/1999/xlink" x="0px" y="0px"
	 width="24px" height="24px" viewBox="0 0 24 24" enable-background="new 0 0 24 24" xml:space="preserve">
<g id="图层_3">
	<g>
		<path fill="#4D4D4D" d="M3.5,3C4.328,3,5,3.672,5,4.5v15C5,20.328,4.328,21,3.5,21S2,20.328,2,19.5v-15C2,3.672,2.672,3,3.5,3z"/>
		<path fill="#4D4D4D" d="M20.5,11c0.828,0,1.5,0.672,1.5,1.5v7c0,0.828-0.672,1.5-1.5,1.5S19,20.328,19,19.5v-7
			C19,11.672,19.672,11,20.5,11z"/>
		<path fill="#4D4D4D" d="M5.5,16h14c0.828,0,1.5,0.672,1.5,1.5S20.328,19,19.5,19h-14C4.672,19,4,18.328,4,17.5S4.672,16,5.5,16z"
			/>
		<path fill="#4D4D4D" d="M6,12h12v3H6V12z"/>
	</g>
</g>
</svg>
