<?xml version="1.0" encoding="utf-8"?>
<!-- Generator: Adobe Illustrator 15.0.2, SVG Export Plug-In . SVG Version: 6.00 Build 0)  -->
<!DOCTYPE svg PUBLIC "-//W3C//DTD SVG 1.1//EN" "http://www.w3.org/Graphics/SVG/1.1/DTD/svg11.dtd">
<svg version="1.1" id="图层_1" xmlns="http://www.w3.org/2000/svg" xmlns:xlink="http://www.w3.org/1999/xlink" x="0px" y="0px"
	 width="24px" height="24px" viewBox="0 0 24 24" enable-background="new 0 0 24 24" xml:space="preserve">
<path fill="#4D4D4D" d="M19.992,19.98v-1.873l-0.977-0.99h-0.004V8.913l0.711-0.155V8.154h1.252l0.016-1.226h0.007L20.99,6.926V6.9
	h-0.078l-7.624-2.549C13.253,3.601,12.691,3,11.998,3c-0.691,0-1.251,0.598-1.289,1.346L3.096,6.9H3.003L2.986,8.154h1.285v0.538
	l0.715,0.206v8.22H4.984l-0.982,0.977v1.887H3.011V21h18.002v-1.02H19.992z M8.988,8.953v8.039H7.007V8.953H8.988z M16.991,8.953
	v8.039h-1.982V8.953H16.991z M12.991,16.992h-1.984V8.953h1.984V16.992z"/>
</svg>
