<?xml version="1.0" encoding="utf-8"?>
<!-- Generator: Adobe Illustrator 15.0.2, SVG Export Plug-In . SVG Version: 6.00 Build 0)  -->
<!DOCTYPE svg PUBLIC "-//W3C//DTD SVG 1.1//EN" "http://www.w3.org/Graphics/SVG/1.1/DTD/svg11.dtd">
<svg version="1.1" id="图层_1" xmlns="http://www.w3.org/2000/svg" xmlns:xlink="http://www.w3.org/1999/xlink" x="0px" y="0px"
	 width="24px" height="24px" viewBox="0 0 24 24" enable-background="new 0 0 24 24" xml:space="preserve">
<g id="图层_3">
	<path fill="#4D4D4D" d="M24,9.106c0-0.266,0-0.192-0.266-0.192h-2.658h-4.52L15.494,7.02L12.57,1.401c-0.268,0-0.268,0-0.533,0
		L9.381,7.02L8.316,8.914h-4.52H0v0.121l1.5,1.063l4.207,3.724l-0.955,8.511c0,0.267,0.055,0.267,0.586,0.267l6.939-4.256
		l6.924,4.256c0.266,0,0.273,0,0.539-0.267l-1.326-8.511l3.988-3.422L24,9.106z M6.457,17.262l7.707-6.282L6.988,9.75h10.899
		l-6.646,6.018l6.912,1.496H6.457V17.262z"/>
</g>
</svg>
