<?xml version="1.0" encoding="utf-8"?>
<!-- Generator: Adobe Illustrator 15.0.2, SVG Export Plug-In . SVG Version: 6.00 Build 0)  -->
<!DOCTYPE svg PUBLIC "-//W3C//DTD SVG 1.1//EN" "http://www.w3.org/Graphics/SVG/1.1/DTD/svg11.dtd">
<svg version="1.1" id="图层_1" xmlns="http://www.w3.org/2000/svg" xmlns:xlink="http://www.w3.org/1999/xlink" x="0px" y="0px"
	 width="24px" height="24px" viewBox="0 0 24 24" enable-background="new 0 0 24 24" xml:space="preserve">
<g id="图层_3">
	<g>
		<path fill="#4D4D4D" d="M17.577,3.023c-2.431,0-4.399,2.096-4.399,4.525c0,3.057,2.678,3.254,4.399,7.701
			c1.719-4.4,4.399-4.377,4.399-7.701C21.979,5.119,20.007,3.023,17.577,3.023z M17.609,9.557c-1.133,0-2.051-0.918-2.051-2.05
			c0-1.133,0.918-2.051,2.051-2.051c1.134,0,2.052,0.918,2.052,2.051C19.661,8.639,18.743,9.557,17.609,9.557z"/>
		<path fill="#4D4D4D" d="M20.939,14.922c0-0.008,0.006-0.016,0.006-0.023c0-0.356-0.291-0.646-0.647-0.646
			c-0.284,0-0.521,0.188-0.606,0.442c-0.658,0.738-0.842,1.109-1.351,1.968c-0.516,0.871-0.813,1.358-0.813,1.358
			s-1.096-2.377-1.863-3.508c-0.247-0.363-0.503-0.691-0.758-0.998V15h-0.973v-2.555c-0.557-0.611-0.756-0.831-1.103-1.357
			c-0.802-1.217-1.062-2.232-0.893-3.792c0.011-0.011,0.017-0.026,0.027-0.038c0.003-0.007,0.011-0.011,0.012-0.018
			c0.096-0.116,0.16-0.259,0.16-0.421c0-0.371-0.301-0.672-0.671-0.672c-0.102,0-0.196,0.026-0.282,0.067
			C9.708,6.631,8.356,7.03,8.356,7.03s-3.388-1.794-3.96-2.004C4.114,4.923,3.871,4.968,3.663,5.073
			C3.632,5.085,3.604,5.102,3.575,5.116C3.556,5.128,3.538,5.141,3.52,5.153c-0.247,0.141-0.43,0.363-0.515,0.64
			c-0.03,0.07-0.052,0.131-0.052,0.162c0,0.008,0,0.044,0,0.092C2.951,6.072,2.938,6.094,2.938,6.119
			c0,0.026,0.013,0.047,0.015,0.072c0,1.729,0,12.543,0,12.543s4.896,2.242,5.503,2.242c0.606,0,6.433-2.226,6.433-2.226
			s3.897,1.84,4.211,2.011c0.02,0.01,0.053,0.02,0.078,0.03c0.172,0.104,0.361,0.185,0.577,0.185c0.067,0,0.126-0.027,0.19-0.039
			c0.494-0.006,1.007-0.226,1.007-1.082c0-0.111,0-2.375,0-4.933L20.939,14.922z M8.921,18.957h-0.99v-1.961h0.99V18.957z
			 M8.921,15.969h-0.99v-1.992h0.99V15.969z M8.921,13.014h-0.99v-2.055h0.99V13.014z M8.921,9.964h-0.99V7.941h0.99V9.964z
			 M14.938,17.986h-1.004v-1.99h1.004V17.986z"/>
	</g>
</g>
</svg>
