<?xml version="1.0" encoding="utf-8"?>
<!-- Generator: Adobe Illustrator 15.0.2, SVG Export Plug-In . SVG Version: 6.00 Build 0)  -->
<!DOCTYPE svg PUBLIC "-//W3C//DTD SVG 1.1//EN" "http://www.w3.org/Graphics/SVG/1.1/DTD/svg11.dtd">
<svg version="1.1" id="图层_1" xmlns="http://www.w3.org/2000/svg" xmlns:xlink="http://www.w3.org/1999/xlink" x="0px" y="0px"
	 width="24px" height="24px" viewBox="0 0 24 24" enable-background="new 0 0 24 24" xml:space="preserve">
<g>
	<path fill="#4D4D4D" d="M23.077,12.73v-0.188l0.89-1.418l-0.686-0.41l-0.158,0.055h-1.127c0.055-0.158,0.111-0.314,0.158-0.48
		h1.812V9.212h-1.551c0.062-0.363,0.108-0.766,0.108-0.766L21.422,8.26c-0.062,0.613-0.174,1.273-0.332,1.812v-0.59h-0.824v-1.13
		l-1.111-0.092v1.225H18.3v1.078h0.509c-0.033,1.58-0.111,3.295-0.896,4.418c0.293,0.174,0.616,0.479,0.801,0.74
		c0.188-0.275,0.349-0.582,0.476-0.896c0.127,0.268,0.207,0.637,0.224,0.912c0.864,0.023,1.08-0.102,1.301-0.418
		c0.304-0.432,0.356-3.678,0.356-3.678l0.017-0.354l-1.254-0.002c0.019-0.242,0.022-0.486,0.032-0.723h1.062
		c-0.072,0.156-0.136,0.299-0.216,0.424c0.19,0.096,0.461,0.252,0.675,0.402v0.361h1.104l-0.161,0.248L22.005,12v0.732h-0.812v1.014
		h0.812v0.857c0,0.086-0.03,0.102-0.135,0.107c-0.095,0-0.406,0-0.677-0.018c0.136,0.301,0.263,0.732,0.293,1.039
		c1.356,0,1.591-0.221,1.591-1.107v-0.881h0.891V12.73H23.077z M20.014,12.316L20.014,12.316c-0.047,1.573-0.111,2.155-0.215,2.304
		c-0.062,0.103-0.127,0.125-0.213,0.125c-0.096,0-0.215,0-0.357-0.017c0.285-0.746,0.443-1.58,0.523-2.413H20.014z"/>
	<path fill="#4D4D4D" d="M18.375,11.173c-0.27-0.236-0.832-0.51-1.252-0.668l-0.635,0.842c0.428,0.188,0.967,0.51,1.213,0.746
		L18.375,11.173z"/>
	<path fill="#4D4D4D" d="M18.562,9.054c-0.277-0.244-0.84-0.535-1.271-0.701L16.65,9.187c0.43,0.197,0.982,0.535,1.229,0.779
		L18.562,9.054z"/>
	<path fill="#4D4D4D" d="M17.439,12.505c-0.285,0.959-0.666,1.957-0.943,2.595l1.027,0.528c0,0,0.049-0.114,0.09-0.229
		c0.238-0.621,0.516-1.461,0.762-2.328L17.439,12.505z"/>
	<path fill="#4D4D4D" d="M11.843,10.218c-0.264-0.014-1.228-0.076-1.228-0.076c-0.18,0.631-0.703,1.129-2.168,1.268
		c0.215,0.221,0.492,0.645,0.588,0.92C10.691,12.075,11.523,11.224,11.843,10.218z"/>
	<path fill="#4D4D4D" d="M13.793,10.892v-0.678l-1.143-0.059v0.883c0,0.859,0.238,1.143,1.27,1.143h1.873l0.133-1.045h-1.83
		C13.842,11.136,13.793,11.113,13.793,10.892z"/>
	<polygon fill="#4D4D4D" points="9.85,9.943 14.523,9.943 14.523,10.691 15.646,10.691 15.646,9.943 15.646,9.755 15.646,9.007 
		12.842,9.007 12.842,8.353 11.533,8.261 11.533,9.007 8.728,9.007 8.728,9.755 8.728,9.943 8.728,10.691 9.85,10.691 	"/>
	<path fill="#4D4D4D" d="M12.485,11.721l-1.336-0.068c0,0.303-0.025,0.571-0.066,0.819c-0.676,0-1.448,0-2.355,0v1.055h1.992
		c-0.468,0.779-1.284,1.107-2.273,1.257c0.23,0.229,0.545,0.663,0.647,0.954c1.428-0.283,2.505-0.913,3.033-2.211h2.25
		c-0.098,0.945-0.428,1.037-0.672,1.037c-0.215,0-0.652,0-1.129-0.039c0.23,0.338,0.392,0.865,0.415,1.213
		c1.522,0,2.571-0.203,2.655-3.266c-0.235,0-0.301,0-3.238,0C12.444,12.235,12.475,11.991,12.485,11.721z"/>
	<path fill="#4D4D4D" d="M3.772,8.261c-2.065,0-3.739,1.674-3.739,3.738c0,2.065,1.674,3.739,3.739,3.739
		c0.877,0,1.673-0.314,2.311-0.819l1.2,0.687c0.064,0.039,0.135-0.033,0.097-0.097L6.692,14.31c0.506-0.638,0.82-1.434,0.82-2.311
		C7.513,9.935,5.838,8.261,3.772,8.261z M3.772,14.259c-1.247,0-2.258-1.012-2.258-2.26c0-1.246,1.011-2.258,2.258-2.258
		c1.248,0,2.259,1.012,2.259,2.258c0,0.304-0.062,0.594-0.171,0.858l-0.445-0.776c-0.023-0.041-0.08-0.049-0.113-0.014l-1.463,1.462
		c-0.034,0.033-0.026,0.091,0.015,0.113l0.777,0.445C4.366,14.196,4.077,14.259,3.772,14.259z"/>
</g>
</svg>
