<?xml version="1.0" encoding="utf-8"?>
<!-- Generator: Adobe Illustrator 15.0.2, SVG Export Plug-In . SVG Version: 6.00 Build 0)  -->
<!DOCTYPE svg PUBLIC "-//W3C//DTD SVG 1.1//EN" "http://www.w3.org/Graphics/SVG/1.1/DTD/svg11.dtd">
<svg version="1.1" id="图层_1" xmlns="http://www.w3.org/2000/svg" xmlns:xlink="http://www.w3.org/1999/xlink" x="0px" y="0px"
	 width="24px" height="24px" viewBox="0 0 24 24" enable-background="new 0 0 24 24" xml:space="preserve">
<g id="图层_3">
	<g>
		<path fill="#4D4D4D" d="M11.999,5.052c-3.737,0-7.186,2.78-9.959,7.469c2.773,4.689,6.222,7.471,9.959,7.471
			c3.737,0,7.187-2.78,9.961-7.471C19.186,7.832,15.736,5.052,11.999,5.052z M11.998,17.668c-2.839,0-5.141-2.302-5.141-5.143
			c0-2.839,2.302-5.142,5.141-5.142c2.84,0,5.141,2.302,5.141,5.142C17.139,15.366,14.838,17.668,11.998,17.668z"/>
		<path fill="#4D4D4D" d="M11.998,9.38c1.738,0,3.146,1.408,3.146,3.146c0,1.74-1.408,3.147-3.146,3.147
			c-1.737,0-3.146-1.407-3.146-3.147C8.852,10.788,10.261,9.38,11.998,9.38z"/>
	</g>
</g>
</svg>
