<?xml version="1.0" encoding="utf-8"?>
<!-- Generator: Adobe Illustrator 15.0.2, SVG Export Plug-In . SVG Version: 6.00 Build 0)  -->
<!DOCTYPE svg PUBLIC "-//W3C//DTD SVG 1.1//EN" "http://www.w3.org/Graphics/SVG/1.1/DTD/svg11.dtd">
<svg version="1.1" id="图层_1" xmlns="http://www.w3.org/2000/svg" xmlns:xlink="http://www.w3.org/1999/xlink" x="0px" y="0px"
	 width="24px" height="24px" viewBox="0 0 24 24" enable-background="new 0 0 24 24" xml:space="preserve">
<path fill="#4D4D4D" d="M11.979,0C5.364,0,0,5.372,0,12c0,6.625,5.364,12,11.979,12C18.596,24,24,18.625,24,12
	C24,5.372,18.596,0,11.979,0z M17.748,14.979c-0.088,0.258-0.211,0.382-0.371,0.382c-0.041,0-0.085-0.016-0.129-0.049
	c-0.047-0.033-0.093-0.073-0.129-0.118c-0.037-0.044-0.08-0.102-0.126-0.173c-0.049-0.071-0.083-0.131-0.108-0.178
	c-0.025-0.046-0.055-0.104-0.09-0.175c-0.037-0.067-0.055-0.107-0.061-0.116c-0.004-0.005-0.012-0.007-0.02-0.007l-0.034,0.027
	c-0.263,0.688-0.558,1.184-0.883,1.492c0.087,0.09,0.224,0.176,0.411,0.26c0.184,0.08,0.338,0.174,0.461,0.275
	c0.124,0.105,0.204,0.25,0.238,0.436c-0.008,0.019-0.018,0.057-0.027,0.107c-0.01,0.055-0.024,0.094-0.047,0.122
	c-0.287,0.433-0.959,0.649-2.023,0.649c-0.236,0-0.481-0.021-0.738-0.061c-0.256-0.04-0.475-0.084-0.657-0.136
	c-0.179-0.049-0.413-0.113-0.699-0.2c-0.066-0.021-0.118-0.037-0.151-0.049c-0.066-0.016-0.168-0.026-0.309-0.026
	c-0.145-0.005-0.232-0.007-0.271-0.011c-0.182,0.201-0.466,0.346-0.852,0.436C10.748,17.955,10.371,18,10.004,18
	c-0.156,0-0.31-0.002-0.463-0.009c-0.15-0.007-0.357-0.026-0.622-0.06c-0.263-0.033-0.487-0.08-0.675-0.137
	c-0.188-0.059-0.354-0.148-0.498-0.268c-0.146-0.123-0.218-0.266-0.218-0.43c0-0.18,0.021-0.311,0.065-0.399
	c0.045-0.087,0.135-0.196,0.274-0.322c0.05-0.011,0.14-0.04,0.272-0.089c0.132-0.051,0.242-0.076,0.33-0.08
	c0.019,0,0.049-0.007,0.094-0.014c0.008-0.009,0.014-0.018,0.014-0.026l-0.014-0.021C8.352,16.096,8.11,15.86,7.842,15.44
	c-0.268-0.422-0.43-0.772-0.488-1.049L7.32,14.371c-0.02,0-0.047,0.047-0.081,0.134c-0.08,0.183-0.202,0.351-0.364,0.5
	c-0.164,0.149-0.338,0.233-0.52,0.251H6.351c-0.021,0-0.033-0.009-0.041-0.029c-0.011-0.021-0.021-0.033-0.034-0.037
	c-0.102-0.24-0.154-0.465-0.154-0.669c0-1.229,0.562-2.269,1.688-3.122l0.002-0.002c-0.035-0.084-0.054-0.199-0.054-0.349
	c0-0.087,0.026-0.2,0.073-0.327c0.048-0.129,0.104-0.23,0.16-0.302c-0.006-0.098,0.012-0.216,0.051-0.355
	C8.078,9.928,8.129,9.83,8.192,9.777c0-0.62,0.204-1.265,0.618-1.932c0.412-0.668,0.9-1.135,1.456-1.403
	C10.889,6.148,11.611,6,12.438,6c0.592,0,1.187,0.122,1.779,0.369c0.22,0.093,0.419,0.199,0.603,0.322
	c0.182,0.119,0.341,0.244,0.477,0.375c0.132,0.129,0.253,0.279,0.367,0.455c0.11,0.174,0.203,0.338,0.281,0.496
	c0.076,0.153,0.148,0.342,0.217,0.564c0.068,0.22,0.125,0.422,0.171,0.598c0.044,0.18,0.093,0.399,0.146,0.657l0.01,0.034
	c0.246,0.37,0.368,0.706,0.368,1.004c0,0.062-0.022,0.15-0.062,0.269c-0.041,0.115-0.061,0.2-0.061,0.251
	c0,0.004,0.004,0.014,0.011,0.027c0.006,0.008,0.013,0.02,0.022,0.033c0.01,0.011,0.014,0.018,0.014,0.021
	c0.344,0.509,0.613,0.986,0.807,1.438c0.193,0.449,0.291,0.914,0.291,1.396C17.879,14.503,17.836,14.725,17.748,14.979z"/>
</svg>
