<?xml version="1.0" encoding="utf-8"?>
<!-- Generator: Adobe Illustrator 15.0.2, SVG Export Plug-In . SVG Version: 6.00 Build 0)  -->
<!DOCTYPE svg PUBLIC "-//W3C//DTD SVG 1.1//EN" "http://www.w3.org/Graphics/SVG/1.1/DTD/svg11.dtd">
<svg version="1.1" id="图层_1" xmlns="http://www.w3.org/2000/svg" xmlns:xlink="http://www.w3.org/1999/xlink" x="0px" y="0px"
	 width="24px" height="24px" viewBox="0 0 24 24" enable-background="new 0 0 24 24" xml:space="preserve">
<path fill="#4D4D4D" d="M20.299,2.041H3.701c-0.917,0-1.66,0.745-1.66,1.661v16.595c0,0.917,0.743,1.662,1.66,1.662H18.21h0.017
	h2.071c0.917,0,1.661-0.744,1.661-1.66v-2.06v-0.052V3.702C21.959,2.786,21.216,2.041,20.299,2.041z M5.188,4.02l8.361,0.001
	c0.208,0.692,0.322,1.425,0.322,2.185c0,1.031-0.208,2.011-0.58,2.908l-1.507-2.63c-0.08-0.139-0.271-0.166-0.385-0.047L6.436,11.4
	c-0.115,0.113-0.088,0.305,0.05,0.385l2.63,1.507c-0.897,0.371-1.877,0.58-2.908,0.58c-0.758,0-1.49-0.113-2.18-0.32V5.118
	C4.028,4.293,4.364,4.02,5.188,4.02z M19.969,18.79c0,0.839-0.269,1.165-1.149,1.165h-1.127v-0.009H5.083
	c-0.822,0-1.055-0.387-1.055-1.212v-0.035c0.708,0.126,1.436,0.196,2.18,0.196c2.975,0,5.674-1.066,7.839-2.78l4.068,2.33
	c0.215,0.125,0.457-0.113,0.332-0.332l-2.33-4.068c1.714-2.165,2.78-4.864,2.78-7.839c0-0.746-0.07-1.474-0.197-2.184h0.1
	c0.837,0,1.164,0.286,1.164,1.167v12.517h0.005L19.969,18.79z"/>
</svg>
