<?xml version="1.0" encoding="utf-8"?>
<!-- Generator: Adobe Illustrator 15.0.2, SVG Export Plug-In . SVG Version: 6.00 Build 0)  -->
<!DOCTYPE svg PUBLIC "-//W3C//DTD SVG 1.1//EN" "http://www.w3.org/Graphics/SVG/1.1/DTD/svg11.dtd">
<svg version="1.1" id="图层_1" xmlns="http://www.w3.org/2000/svg" xmlns:xlink="http://www.w3.org/1999/xlink" x="0px" y="0px"
	 width="24px" height="24px" viewBox="0 0 24 24" enable-background="new 0 0 24 24" xml:space="preserve">
<g id="图层_3">
	<g>
		<path fill="#4D4D4D" d="M19.575,4.993h-1.579V4.125c0-0.692-0.771-1.135-1.471-1.135c-0.696,0-1.524,0.442-1.524,1.135v0.868
			H8.999V4.125c0-0.692-0.842-1.135-1.539-1.135c-0.698,0-1.457,0.442-1.457,1.135v0.868H4.258c-0.7,0-1.265,0.515-1.265,1.216v2.78
			h18.014v-2.78C21.007,5.508,20.273,4.993,19.575,4.993z"/>
		<path fill="#4D4D4D" d="M2.993,9.973v9.72c0,0.697,0.564,1.316,1.265,1.316h15.34c0.698,0,1.399-0.619,1.399-1.316v-9.72H2.993z
			 M11.399,18.602l-1.175-1.174l-2.138-2.139l1.174-1.176l2.139,2.139l4.275-4.275l1.176,1.173L11.399,18.602z"/>
	</g>
</g>
</svg>
