<?xml version="1.0" encoding="utf-8"?>
<!-- Generator: Adobe Illustrator 15.0.2, SVG Export Plug-In . SVG Version: 6.00 Build 0)  -->
<!DOCTYPE svg PUBLIC "-//W3C//DTD SVG 1.1//EN" "http://www.w3.org/Graphics/SVG/1.1/DTD/svg11.dtd">
<svg version="1.1" id="图层_1" xmlns="http://www.w3.org/2000/svg" xmlns:xlink="http://www.w3.org/1999/xlink" x="0px" y="0px"
	 width="24px" height="24px" viewBox="0 0 24 24" enable-background="new 0 0 24 24" xml:space="preserve">
<g>
	<g>
		<path fill="#4D4D4D" d="M12.061,7.538c1.773,0,3.21-1.69,3.21-3.771c0-2.08-1.438-3.767-3.21-3.767
			c-1.771,0-3.21,1.688-3.21,3.767C8.851,5.847,10.29,7.538,12.061,7.538z M13.898,8.857h-1.849c0,0-0.688,0-1.852,0
			c-1.161,0-2.587,0.899-2.587,2.591c0,1.689,0,6.287,0,6.287h1.215l1.32,6.288h3.806l1.216-6.288h1.318c0,0,0-5.443,0-6.341
			C16.485,10.498,15.636,8.857,13.898,8.857z M3.16,8.844c1.258,0,2.279-1.404,2.279-3.135S4.418,2.575,3.16,2.575
			c-1.257,0-2.278,1.402-2.278,3.134S1.903,8.844,3.16,8.844z M4.463,9.942H3.15c0,0-0.488,0-1.312,0C1.013,9.942,0,10.69,0,12.097
			s0,4.37,0,4.37h0.864l0.937,5.072h2.7l0.864-5.072h0.936c0,0,0-3.666,0-4.414C6.301,11.306,5.697,9.942,4.463,9.942z
			 M20.875,8.844c1.261,0,2.281-1.404,2.281-3.135s-1.021-3.134-2.281-3.134c-1.258,0-2.279,1.402-2.279,3.134
			S19.617,8.844,20.875,8.844z M22.181,9.942h-1.314c0,0-0.488,0-1.314,0c-0.823,0-1.836,0.748-1.836,2.155s0,4.37,0,4.37h0.862
			l0.938,5.072h2.699l0.864-5.072h0.938c0,0,0-3.666,0-4.414C24.018,11.306,23.412,9.942,22.181,9.942z"/>
	</g>
</g>
</svg>
