<?xml version="1.0" encoding="utf-8"?>
<!-- Generator: Adobe Illustrator 15.0.2, SVG Export Plug-In . SVG Version: 6.00 Build 0)  -->
<!DOCTYPE svg PUBLIC "-//W3C//DTD SVG 1.1//EN" "http://www.w3.org/Graphics/SVG/1.1/DTD/svg11.dtd">
<svg version="1.1" id="图层_1" xmlns="http://www.w3.org/2000/svg" xmlns:xlink="http://www.w3.org/1999/xlink" x="0px" y="0px"
	 width="24px" height="24px" viewBox="0 0 24 24" enable-background="new 0 0 24 24" xml:space="preserve">
<g>
	<polygon fill="#4D4D4D" points="14.943,10.874 9.494,10.874 13.082,11.489 9.229,14.631 15.076,14.631 11.62,13.884 	"/>
	<path fill="#4D4D4D" d="M11.979,0C5.364,0,0,5.372,0,12c0,6.625,5.364,12,11.979,12C18.596,24,24,18.625,24,12
		C24,5.372,18.596,0,11.979,0z M17.201,11.2l-1.994,1.711l0.663,4.256c-0.133,0.133-0.137,0.133-0.27,0.133l-3.462-2.129L8.669,17.3
		c-0.266,0-0.293,0-0.293-0.133l0.478-4.256L6.75,11.05L6,10.518v-0.061h1.898h2.26L10.69,9.51l1.328-2.81c0.133,0,0.133,0,0.267,0
		l1.462,2.81l0.531,0.947h2.26h1.329C18,10.457,18,10.421,18,10.554L17.201,11.2z"/>
</g>
</svg>
