<?xml version="1.0" encoding="utf-8"?>
<!-- Generator: Adobe Illustrator 15.0.2, SVG Export Plug-In . SVG Version: 6.00 Build 0)  -->
<!DOCTYPE svg PUBLIC "-//W3C//DTD SVG 1.1//EN" "http://www.w3.org/Graphics/SVG/1.1/DTD/svg11.dtd">
<svg version="1.1" id="图层_1" xmlns="http://www.w3.org/2000/svg" xmlns:xlink="http://www.w3.org/1999/xlink" x="0px" y="0px"
	 width="24px" height="24px" viewBox="0 0 24 24" enable-background="new 0 0 24 24" xml:space="preserve">
<g id="图层_3">
	<path fill="#4D4D4D" d="M21.581,16.964c-0.146,0.429-0.353,0.638-0.62,0.638c-0.066,0-0.141-0.026-0.215-0.082
		c-0.078-0.057-0.153-0.123-0.215-0.197c-0.062-0.072-0.133-0.168-0.209-0.287c-0.082-0.119-0.139-0.219-0.18-0.297
		c-0.043-0.077-0.094-0.174-0.149-0.293c-0.063-0.11-0.093-0.178-0.103-0.191c-0.008-0.007-0.021-0.012-0.031-0.012l-0.059,0.045
		c-0.438,1.148-0.929,1.975-1.472,2.488c0.146,0.147,0.374,0.293,0.685,0.434c0.309,0.133,0.564,0.288,0.77,0.459
		c0.207,0.174,0.341,0.415,0.398,0.727c-0.016,0.029-0.029,0.092-0.048,0.178c-0.017,0.093-0.04,0.154-0.077,0.203
		c-0.479,0.723-1.6,1.082-3.373,1.082c-0.393,0-0.802-0.033-1.229-0.101c-0.427-0.067-0.791-0.141-1.097-0.228
		c-0.297-0.08-0.688-0.188-1.164-0.332c-0.11-0.038-0.195-0.063-0.254-0.082c-0.107-0.025-0.278-0.045-0.513-0.045
		c-0.242-0.008-0.389-0.01-0.452-0.018c-0.304,0.336-0.777,0.576-1.42,0.725C9.914,21.925,9.286,22,8.675,22
		c-0.261,0-0.517-0.005-0.771-0.016c-0.25-0.012-0.597-0.045-1.037-0.101c-0.438-0.056-0.813-0.134-1.124-0.226
		c-0.315-0.1-0.591-0.248-0.831-0.448c-0.243-0.204-0.363-0.44-0.363-0.715c0-0.3,0.035-0.519,0.109-0.666
		c0.074-0.146,0.226-0.326,0.458-0.537c0.082-0.019,0.231-0.065,0.452-0.147c0.221-0.086,0.404-0.127,0.553-0.133
		c0.029,0,0.081-0.013,0.155-0.023c0.013-0.016,0.022-0.028,0.022-0.045l-0.022-0.032c-0.355-0.085-0.757-0.478-1.203-1.177
		c-0.447-0.705-0.719-1.289-0.815-1.748l-0.056-0.033c-0.031,0-0.077,0.076-0.135,0.222c-0.133,0.304-0.337,0.585-0.606,0.833
		c-0.274,0.248-0.563,0.389-0.867,0.42H2.586c-0.034,0-0.056-0.017-0.069-0.05c-0.017-0.036-0.035-0.056-0.056-0.062
		c-0.17-0.4-0.259-0.773-0.259-1.114c0-2.048,0.937-3.781,2.812-5.202l0.003-0.004c-0.059-0.141-0.088-0.334-0.088-0.582
		c0-0.145,0.043-0.332,0.121-0.544c0.08-0.215,0.173-0.386,0.268-0.504C5.31,9.202,5.338,9.007,5.403,8.772
		C5.465,8.548,5.55,8.385,5.655,8.295c0-1.033,0.341-2.107,1.031-3.218c0.687-1.114,1.5-1.892,2.426-2.34
		C10.148,2.249,11.354,2,12.73,2c0.986,0,1.979,0.204,2.967,0.614c0.365,0.156,0.697,0.334,1.004,0.537
		c0.303,0.201,0.566,0.408,0.794,0.626c0.22,0.215,0.422,0.467,0.612,0.76c0.185,0.289,0.338,0.562,0.469,0.826
		c0.126,0.256,0.248,0.569,0.361,0.939c0.113,0.366,0.209,0.704,0.285,0.996c0.071,0.3,0.153,0.667,0.24,1.097l0.018,0.056
		c0.41,0.617,0.613,1.178,0.613,1.674c0,0.104-0.037,0.251-0.102,0.448c-0.069,0.191-0.104,0.332-0.104,0.417
		c0,0.009,0.008,0.022,0.02,0.045c0.01,0.016,0.021,0.034,0.037,0.056c0.017,0.019,0.022,0.029,0.022,0.037
		c0.572,0.848,1.021,1.644,1.345,2.396c0.322,0.748,0.483,1.522,0.483,2.326C21.798,16.172,21.729,16.542,21.581,16.964z"/>
</g>
</svg>
