<?xml version="1.0" encoding="utf-8"?>
<!-- Generator: Adobe Illustrator 15.0.2, SVG Export Plug-In . SVG Version: 6.00 Build 0)  -->
<!DOCTYPE svg PUBLIC "-//W3C//DTD SVG 1.1//EN" "http://www.w3.org/Graphics/SVG/1.1/DTD/svg11.dtd">
<svg version="1.1" id="图层_1" xmlns="http://www.w3.org/2000/svg" xmlns:xlink="http://www.w3.org/1999/xlink" x="0px" y="0px"
	 width="24px" height="24px" viewBox="0 0 24 24" enable-background="new 0 0 24 24" xml:space="preserve">
<g id="图层_3">
	<g>
		<g>
			<path fill="#4D4D4D" d="M14.993,4H8.998C7.343,4,6,5.341,6,6.998v9.992c0,1.656,1.343,2.998,2.998,2.998h5.995
				c1.655,0,2.997-1.342,2.997-2.998V6.998C17.99,5.341,16.648,4,14.993,4z M12.994,18.99h-1.997v-2h1.997V18.99z M15.991,14.992
				c0,0.551-0.446,1-0.998,1H8.998c-0.552,0-0.999-0.449-0.999-1V6.998c0-0.552,0.447-1,0.999-1h5.995c0.552,0,0.998,0.448,0.998,1
				V14.992z"/>
		</g>
	</g>
</g>
</svg>
