<?xml version="1.0" encoding="utf-8"?>
<!-- Generator: Adobe Illustrator 15.0.2, SVG Export Plug-In . SVG Version: 6.00 Build 0)  -->
<!DOCTYPE svg PUBLIC "-//W3C//DTD SVG 1.1//EN" "http://www.w3.org/Graphics/SVG/1.1/DTD/svg11.dtd">
<svg version="1.1" id="图层_1" xmlns="http://www.w3.org/2000/svg" xmlns:xlink="http://www.w3.org/1999/xlink" x="0px" y="0px"
	 width="24px" height="24px" viewBox="0 0 24 24" enable-background="new 0 0 24 24" xml:space="preserve">
<g id="图层_3">
	<g>
		<path fill="#4D4D4D" d="M4.163,3.064c1.188,0,2.151,0.872,2.151,1.948c0,1.069-0.964,1.937-2.151,1.937
			c-1.201,0-2.156-0.865-2.156-1.937C2.007,3.937,2.962,3.064,4.163,3.064z"/>
		<path fill="#4D4D4D" d="M5.951,14.766c-0.565,1.778-0.417,1.121-2.683,6.064L0,18.775c0,0,3.65-3.348,4.396-4.879
			c0.802-1.617-0.872-2.479-0.872-2.479L1.008,9.851L2.37,7.743c1.894,1.415,2.029,1.535,3.3,2.821
			C6.665,11.57,6.533,12.957,5.951,14.766z"/>
		<path fill="#4D4D4D" d="M23.751,17.079c-0.636,6.038-8.427,3.788-8.427,3.788l0.42-1.725l1.806,0.387
			c3.339,0.209,3.015-2.721,3.015-2.721V8.267c0.022-3.247-3.031-3.591-8.514-1.606l1.279,0.353
			c-0.105,0.371-0.521,0.969-1.052,1.615h7.328v1.494h-4.119v1.873h4.102v1.495h-4.102v3.133c0.613-0.21,1.188-0.487,1.678-0.862
			l-0.354-1.363l1.937-0.606l1.616,3.979l-2.389,1.008l-0.425-1.592c-1.063,0.822-3.286,2.02-7.16,1.914
			c-4.141,0.104-3.071-4.703-3.071-4.703l0.104-0.059h2.91c-0.018,0.624-0.268,1.626,0.07,2.178
			c0.289,0.449,1.012,0.525,1.472,0.553l0.162,0.005v-3.58H7.826v-1.497h4.211v-1.871h-1.082c-0.946,1.013-1.814,1.854-1.814,1.854
			L7.87,10.854c0.907-0.959,1.801-2.478,2.362-3.492c-0.447,0.186-0.912,0.383-1.398,0.6C8.374,8.56,7.826,9.18,7.222,9.789
			c0.021,0.033-2.086-1.194-2.086-1.194c2.178-1.862,3.396-5.872,3.396-5.872l3.019,0.854c0,0-0.241,0.588-0.763,1.492
			c12.095-3.446,12.81,2.121,12.81,2.121S24.391,11.045,23.751,17.079z"/>
	</g>
</g>
</svg>
