<?xml version="1.0" encoding="utf-8"?>
<!-- Generator: Adobe Illustrator 15.0.2, SVG Export Plug-In . SVG Version: 6.00 Build 0)  -->
<!DOCTYPE svg PUBLIC "-//W3C//DTD SVG 1.1//EN" "http://www.w3.org/Graphics/SVG/1.1/DTD/svg11.dtd">
<svg version="1.1" id="图层_1" xmlns="http://www.w3.org/2000/svg" xmlns:xlink="http://www.w3.org/1999/xlink" x="0px" y="0px"
	 width="24px" height="24px" viewBox="0 0 24 24" enable-background="new 0 0 24 24" xml:space="preserve">
<g id="图层_3">
	<g>
		<path fill="#4D4D4D" d="M23.77,23.749c-0.303,0.299-0.795,0.299-1.098,0l-6.582-6.461c-1.695,1.356-3.857,2.171-6.214,2.171
			c-5.452,0-9.873-4.35-9.873-9.718c0-5.364,4.421-9.715,9.873-9.715c5.454,0,9.687,4.351,9.687,9.715
			c0,2.511-0.787,4.79-2.373,6.514l6.58,6.415C24.072,22.969,24.072,23.452,23.77,23.749z M18.044,9.741
			c0-4.539-3.554-8.219-8.168-8.219c-4.614,0-8.354,3.68-8.354,8.219c0,4.54,3.74,8.224,8.354,8.224
			C14.49,17.965,18.044,14.281,18.044,9.741z"/>
	</g>
</g>
</svg>
