<?xml version="1.0" encoding="utf-8"?>
<!-- Generator: Adobe Illustrator 15.0.2, SVG Export Plug-In . SVG Version: 6.00 Build 0)  -->
<!DOCTYPE svg PUBLIC "-//W3C//DTD SVG 1.1//EN" "http://www.w3.org/Graphics/SVG/1.1/DTD/svg11.dtd">
<svg version="1.1" id="图层_1" xmlns="http://www.w3.org/2000/svg" xmlns:xlink="http://www.w3.org/1999/xlink" x="0px" y="0px"
	 width="24px" height="24px" viewBox="0 0 24 24" enable-background="new 0 0 24 24" xml:space="preserve">
<g id="图层_3">
	<g>
		<path fill="#4D4D4D" d="M23.876,10.354l-2.815,3.593c-0.23,0.226-0.605,0.226-0.838,0l-2.797-3.593
			c-0.333-0.39-0.111-0.53,0.121-0.755h2.561c-1.021-3.171-4.064-5.995-8.109-5.995c-3.127,0-5.847,1.737-7.247,4.299L3.354,7.345
			c1.628-3.112,4.885-5.24,8.644-5.24c4.875,0,8.787,3.136,9.626,7.495h2.131C23.986,9.824,24.107,10.129,23.876,10.354z
			 M3.804,10.006l2.815,3.641c0.231,0.227,0.11,0.531-0.121,0.756H4.061c0.979,3.459,4.159,5.996,7.937,5.996
			c2.874,0,5.402-1.471,6.881-3.697l1.411,0.564c-1.72,2.774-4.784,4.631-8.292,4.631c-4.61,0-8.456-3.199-9.473-7.494H0.29
			c-0.231-0.225-0.453-0.365-0.121-0.756l2.797-3.641C3.197,9.78,3.572,9.78,3.804,10.006z"/>
	</g>
</g>
</svg>
