<?xml version="1.0" encoding="utf-8"?>
<!-- Generator: Adobe Illustrator 15.0.2, SVG Export Plug-In . SVG Version: 6.00 Build 0)  -->
<!DOCTYPE svg PUBLIC "-//W3C//DTD SVG 1.1//EN" "http://www.w3.org/Graphics/SVG/1.1/DTD/svg11.dtd">
<svg version="1.1" id="图层_1" xmlns="http://www.w3.org/2000/svg" xmlns:xlink="http://www.w3.org/1999/xlink" x="0px" y="0px"
	 width="24px" height="24px" viewBox="0 0 24 24" enable-background="new 0 0 24 24" xml:space="preserve">
<g id="图层_3">
	<g>
		<path fill="#4D4D4D" d="M0,12c0,6.625,5.364,12,11.979,12C18.596,24,24,18.625,24,12c0-6.628-5.404-12-12.021-12
			C5.364,0,0,5.372,0,12z M2.013,11.973c0-5.529,4.475-10.011,9.994-10.011C17.525,1.962,22,6.443,22,11.973
			c0,5.53-4.475,10.009-9.993,10.009C6.488,21.982,2.013,17.502,2.013,11.973z"/>
		<g>
			<path fill="#4D4D4D" d="M11.003,5.057c-0.016-0.272,0.07-0.55,0.278-0.758c0.387-0.386,1.014-0.386,1.401,0
				c0.207,0.208,0.293,0.485,0.277,0.758h0.029v6.921h-0.021c0.004,0.258-0.09,0.517-0.285,0.713c-0.388,0.387-1.015,0.387-1.401,0
				c-0.196-0.196-0.29-0.456-0.286-0.713h-0.006V5.057H11.003z"/>
			<path fill="#4D4D4D" d="M10.972,16.066c-0.016-0.271,0.07-0.549,0.278-0.758c0.387-0.386,1.014-0.386,1.4,0
				c0.207,0.209,0.293,0.485,0.277,0.758h0.029v2.932h-0.021c0.004,0.258-0.09,0.518-0.285,0.713c-0.387,0.387-1.014,0.387-1.4,0
				c-0.196-0.195-0.29-0.455-0.286-0.713h-0.006v-2.932H10.972z"/>
		</g>
	</g>
</g>
</svg>
