<?xml version="1.0" encoding="utf-8"?>
<!-- Generator: Adobe Illustrator 15.0.2, SVG Export Plug-In . SVG Version: 6.00 Build 0)  -->
<!DOCTYPE svg PUBLIC "-//W3C//DTD SVG 1.1//EN" "http://www.w3.org/Graphics/SVG/1.1/DTD/svg11.dtd">
<svg version="1.1" id="图层_1" xmlns="http://www.w3.org/2000/svg" xmlns:xlink="http://www.w3.org/1999/xlink" x="0px" y="0px"
	 width="24px" height="24px" viewBox="0 0 24 24" enable-background="new 0 0 24 24" xml:space="preserve">
<g id="图层_3">
	<g>
		<path fill="#4D4D4D" d="M2.025,2.976v17.084h2.859V15.8h2.839v4.261h3.832V2.976H2.025z M4.874,11.904H2.977v-1.826h1.897V11.904z
			 M4.874,9.047H2.977V7.22h1.897V9.047z M4.874,6.186H2.977V4.359h1.897V6.186z M7.734,9.047H5.838V7.22h1.896V9.047z
			 M10.593,14.766H8.696v-1.826h1.896L10.593,14.766L10.593,14.766z"/>
		<path fill="#4D4D4D" d="M12.509,6.267V20.05h2.86V15.8h2.837v4.25h3.834V6.267H12.509z M15.357,11.904h-1.896v-1.826h1.896V11.904
			z M15.357,9.047h-1.896V7.22h1.896V9.047z M18.218,9.047h-1.896V7.22h1.896V9.047z M21.077,14.766h-1.896v-1.826h1.896V14.766z"/>
	</g>
</g>
</svg>
