<?xml version="1.0" encoding="utf-8"?>
<!-- Generator: Adobe Illustrator 15.0.2, SVG Export Plug-In . SVG Version: 6.00 Build 0)  -->
<!DOCTYPE svg PUBLIC "-//W3C//DTD SVG 1.1//EN" "http://www.w3.org/Graphics/SVG/1.1/DTD/svg11.dtd">
<svg version="1.1" id="图层_1" xmlns="http://www.w3.org/2000/svg" xmlns:xlink="http://www.w3.org/1999/xlink" x="0px" y="0px"
	 width="24px" height="24px" viewBox="0 0 24 24" enable-background="new 0 0 24 24" xml:space="preserve">
<g>
	<g>
		<g>
			<path fill="#4D4D4D" d="M11.234,12.427c-0.474-0.121-0.943-0.079-1.408,0.128c-0.467,0.205-0.806,0.515-1.015,0.931
				c-0.21,0.424-0.226,0.841-0.044,1.255c0.18,0.412,0.51,0.694,0.986,0.848c0.496,0.159,0.997,0.134,1.5-0.081
				c0.505-0.214,0.856-0.549,1.057-1.005c0.201-0.445,0.197-0.872-0.015-1.275C12.084,12.822,11.729,12.556,11.234,12.427z
				 M10.519,14.595c-0.099,0.154-0.237,0.259-0.421,0.318c-0.18,0.062-0.345,0.056-0.497-0.018c-0.151-0.07-0.247-0.182-0.288-0.336
				s-0.01-0.307,0.087-0.459c0.093-0.146,0.228-0.25,0.401-0.309c0.176-0.058,0.339-0.056,0.49,0.007
				c0.156,0.067,0.256,0.178,0.301,0.335C10.636,14.291,10.612,14.444,10.519,14.595z M11.148,13.787
				c-0.031,0.056-0.082,0.098-0.146,0.123c-0.067,0.025-0.133,0.026-0.195,0.003c-0.135-0.062-0.162-0.162-0.087-0.301
				c0.033-0.059,0.081-0.1,0.144-0.125c0.065-0.023,0.127-0.024,0.191-0.002c0.058,0.021,0.096,0.062,0.118,0.123
				C11.192,13.667,11.184,13.729,11.148,13.787z"/>
			<path fill="#4D4D4D" d="M16.234,12.679c-0.152-0.232-0.33-0.416-0.535-0.547c-0.205-0.129-0.435-0.234-0.689-0.312
				c-0.053-0.018-0.092-0.031-0.115-0.041c-0.02-0.01-0.047-0.025-0.078-0.05c-0.031-0.025-0.042-0.053-0.031-0.084
				c0.014-0.031,0.023-0.077,0.031-0.134c0.201-0.514,0.201-0.91,0-1.192c-0.205-0.271-0.548-0.407-1.024-0.407
				s-1.026,0.132-1.648,0.395l-0.038,0.013c-0.026,0.009-0.057,0.019-0.092,0.024c-0.031,0.008-0.064,0.008-0.098,0.003
				c-0.029-0.004-0.053-0.021-0.065-0.046c-0.015-0.027-0.01-0.072,0.007-0.135c0.199-0.646,0.156-1.113-0.136-1.398
				c-0.329-0.33-0.88-0.346-1.649-0.047S8.541,9.546,7.787,10.3c-0.572,0.57-1.012,1.146-1.324,1.726
				C6.155,12.606,6,13.153,6,13.667c0,0.481,0.145,0.927,0.434,1.335c0.291,0.408,0.674,0.744,1.148,1.01
				c0.477,0.266,1.013,0.474,1.61,0.624c0.599,0.148,1.211,0.223,1.843,0.223c0.629,0,1.232-0.068,1.811-0.207
				c0.576-0.138,1.082-0.323,1.512-0.557c0.43-0.23,0.807-0.492,1.127-0.785c0.322-0.293,0.566-0.598,0.73-0.916
				c0.166-0.32,0.248-0.632,0.248-0.936C16.463,13.173,16.388,12.913,16.234,12.679z M13.514,15.202
				c-0.652,0.529-1.479,0.846-2.473,0.946c-0.652,0.063-1.266,0.017-1.838-0.141c-0.573-0.155-1.04-0.397-1.396-0.728
				c-0.356-0.331-0.555-0.711-0.596-1.139c-0.062-0.652,0.233-1.242,0.887-1.771c0.654-0.529,1.479-0.845,2.474-0.948
				c0.651-0.062,1.263-0.016,1.838,0.141c0.573,0.156,1.04,0.4,1.397,0.729c0.355,0.331,0.554,0.71,0.594,1.138
				C14.463,14.084,14.168,14.674,13.514,15.202z"/>
		</g>
		<path fill="#4D4D4D" d="M15.377,9.811c-0.195-0.216-0.435-0.293-0.715-0.235c-0.107,0.021-0.209,0.005-0.302-0.054
			c-0.094-0.059-0.148-0.14-0.167-0.247c-0.022-0.107-0.004-0.206,0.055-0.299c0.057-0.092,0.139-0.146,0.246-0.169
			c0.269-0.058,0.534-0.046,0.797,0.036c0.262,0.084,0.49,0.229,0.676,0.438c0.188,0.209,0.31,0.452,0.366,0.726
			c0.055,0.274,0.04,0.536-0.044,0.787c-0.035,0.103-0.103,0.178-0.198,0.228c-0.097,0.05-0.194,0.058-0.298,0.026
			c-0.104-0.035-0.18-0.102-0.227-0.198c-0.049-0.094-0.059-0.194-0.028-0.298C15.628,10.272,15.576,10.023,15.377,9.811z"/>
		<path fill="#4D4D4D" d="M17.841,11.296c-0.039,0.121-0.114,0.211-0.226,0.268c-0.113,0.057-0.228,0.066-0.348,0.027
			c-0.123-0.04-0.211-0.115-0.27-0.227c-0.057-0.112-0.068-0.229-0.031-0.349c0.123-0.366,0.146-0.749,0.065-1.151
			c-0.081-0.403-0.259-0.755-0.536-1.059c-0.276-0.307-0.606-0.521-0.99-0.639c-0.383-0.119-0.77-0.137-1.157-0.059
			C14.223,8.136,14.107,8.114,14,8.047c-0.105-0.07-0.173-0.167-0.201-0.292c-0.025-0.126-0.005-0.24,0.062-0.344
			c0.07-0.106,0.168-0.172,0.292-0.199c0.55-0.115,1.095-0.089,1.634,0.078c0.541,0.167,1.004,0.467,1.391,0.899l0,0V8.19
			c0,0,0,0,0-0.001c0.39,0.429,0.641,0.927,0.756,1.489C18.046,10.243,18.016,10.782,17.841,11.296z"/>
	</g>
	<g>
		<path fill="#4D4D4D" d="M0,12c0,6.625,5.364,12,11.979,12C18.596,24,24,18.625,24,12c0-6.628-5.404-12-12.021-12
			C5.364,0,0,5.372,0,12z M0.563,11.973c0-6.33,5.124-11.463,11.443-11.463c6.32,0,11.442,5.133,11.442,11.463
			s-5.122,11.462-11.442,11.462C5.687,23.435,0.563,18.303,0.563,11.973z"/>
	</g>
</g>
</svg>
