<?xml version="1.0" encoding="utf-8"?>
<!-- Generator: Adobe Illustrator 15.0.2, SVG Export Plug-In . SVG Version: 6.00 Build 0)  -->
<!DOCTYPE svg PUBLIC "-//W3C//DTD SVG 1.1//EN" "http://www.w3.org/Graphics/SVG/1.1/DTD/svg11.dtd">
<svg version="1.1" id="图层_1" xmlns="http://www.w3.org/2000/svg" xmlns:xlink="http://www.w3.org/1999/xlink" x="0px" y="0px"
	 width="24px" height="24px" viewBox="0 0 24 24" enable-background="new 0 0 24 24" xml:space="preserve">
<g id="图层_3">
	<g>
		<path fill="#4D4D4D" d="M21.973,9.688c-0.145-0.449-0.529-0.777-0.996-0.852L15.676,8l-2.537-5.357
			c-0.207-0.438-0.647-0.717-1.133-0.717c-0.485,0-0.926,0.279-1.133,0.717L8.336,8L3.035,8.836C2.568,8.91,2.184,9.238,2.039,9.688
			c-0.041,0.127-0.062,0.258-0.062,0.387c0,0.328,0.129,0.648,0.367,0.887l3.914,3.914l-1.123,5.608
			c-0.096,0.479,0.096,0.972,0.49,1.259c0.219,0.159,0.479,0.241,0.74,0.241c0.209,0,0.418-0.053,0.607-0.157l5.033-2.796
			l5.033,2.796c0.188,0.104,0.399,0.157,0.608,0.157c0.261,0,0.521-0.082,0.738-0.241c0.395-0.287,0.586-0.779,0.49-1.259
			l-1.121-5.608l3.912-3.914c0.238-0.238,0.367-0.559,0.367-0.887C22.035,9.945,22.016,9.814,21.973,9.688z"/>
	</g>
</g>
</svg>
