<?xml version="1.0" encoding="utf-8"?>
<!-- Generator: Adobe Illustrator 15.0.2, SVG Export Plug-In . SVG Version: 6.00 Build 0)  -->
<!DOCTYPE svg PUBLIC "-//W3C//DTD SVG 1.1//EN" "http://www.w3.org/Graphics/SVG/1.1/DTD/svg11.dtd">
<svg version="1.1" id="图层_1" xmlns="http://www.w3.org/2000/svg" xmlns:xlink="http://www.w3.org/1999/xlink" x="0px" y="0px"
	 width="24px" height="24px" viewBox="0 0 24 24" enable-background="new 0 0 24 24" xml:space="preserve">
<path fill="#4D4D4D" d="M11.979,0C5.364,0,0,5.372,0,12c0,6.625,5.364,12,11.979,12C18.596,24,24,18.625,24,12
	C24,5.372,18.596,0,11.979,0z M8.082,7.532c0.594,0,1.075,0.436,1.075,0.975c0,0.534-0.481,0.968-1.075,0.968
	c-0.602,0-1.078-0.433-1.078-0.968C7.004,7.968,7.48,7.532,8.082,7.532z M8.976,13.382c-0.282,0.891-0.208,0.562-1.341,3.033
	L6,15.388c0,0,1.825-1.674,2.197-2.439c0.401-0.809-0.436-1.24-0.436-1.24l-1.258-0.783l0.682-1.053
	c0.946,0.707,1.014,0.768,1.649,1.41C9.332,11.785,9.267,12.479,8.976,13.382z M17.875,14.54c-0.317,3.019-4.213,1.894-4.213,1.894
	l0.21-0.862l0.903,0.193c1.669,0.104,1.507-1.359,1.507-1.359v-4.271c0.011-1.624-1.517-1.796-4.257-0.804l0.64,0.177
	c-0.053,0.186-0.261,0.484-0.526,0.807h3.664v0.748h-2.06v0.936h2.051v0.748h-2.051v1.566c0.307-0.105,0.594-0.244,0.839-0.432
	l-0.178-0.682l0.969-0.303l0.809,1.988l-1.194,0.504l-0.212-0.795c-0.533,0.411-1.644,1.01-3.58,0.957
	c-2.07,0.053-1.536-2.352-1.536-2.352l0.052-0.029h1.455c-0.008,0.312-0.133,0.812,0.035,1.089c0.145,0.225,0.506,0.263,0.736,0.276
	l0.081,0.002v-1.79H9.913v-0.749h2.105v-0.936h-0.541c-0.474,0.507-0.907,0.928-0.907,0.928l-0.635-0.562
	c0.453-0.479,0.9-1.238,1.181-1.746c-0.224,0.094-0.456,0.191-0.699,0.301c-0.229,0.299-0.504,0.608-0.806,0.913
	c0.01,0.017-1.043-0.597-1.043-0.597c1.088-0.932,1.697-2.937,1.697-2.937l1.51,0.427c0,0-0.121,0.295-0.381,0.746
	c6.047-1.723,6.404,1.061,6.404,1.061S18.195,11.522,17.875,14.54z"/>
</svg>
