<?xml version="1.0" encoding="utf-8"?>
<!-- Generator: Adobe Illustrator 15.0.2, SVG Export Plug-In . SVG Version: 6.00 Build 0)  -->
<!DOCTYPE svg PUBLIC "-//W3C//DTD SVG 1.1//EN" "http://www.w3.org/Graphics/SVG/1.1/DTD/svg11.dtd">
<svg version="1.1" id="图层_1" xmlns="http://www.w3.org/2000/svg" xmlns:xlink="http://www.w3.org/1999/xlink" x="0px" y="0px"
	 width="24px" height="24px" viewBox="0 0 24 24" enable-background="new 0 0 24 24" xml:space="preserve">
<g id="图层_3">
	<path fill="#4D4D4D" d="M1.972,10.074c0-0.129,0.02-0.26,0.062-0.387C2.179,9.238,2.563,8.91,3.03,8.836L8.331,8l2.537-5.357
		c0.207-0.438,0.648-0.717,1.133-0.717c0.002,0,0.004,0.001,0.006,0.001v17.107l-0.006-0.003l-5.033,2.795
		c-0.189,0.105-0.4,0.158-0.609,0.158c-0.26,0-0.52-0.082-0.738-0.242c-0.395-0.287-0.586-0.779-0.49-1.258l1.121-5.609L2.34,10.961
		C2.101,10.723,1.972,10.402,1.972,10.074z"/>
</g>
</svg>
