<?xml version="1.0" encoding="utf-8"?>
<!-- Generator: Adobe Illustrator 15.0.2, SVG Export Plug-In . SVG Version: 6.00 Build 0)  -->
<!DOCTYPE svg PUBLIC "-//W3C//DTD SVG 1.1//EN" "http://www.w3.org/Graphics/SVG/1.1/DTD/svg11.dtd">
<svg version="1.1" id="图层_1" xmlns="http://www.w3.org/2000/svg" xmlns:xlink="http://www.w3.org/1999/xlink" x="0px" y="0px"
	 width="24px" height="24px" viewBox="0 0 24 24" enable-background="new 0 0 24 24" xml:space="preserve">
<g id="图层_3">
	<g>
		<path fill="#4D4D4D" d="M2.961,16.139l-2.922-9.1h2.262l1.103,3.851c0.309,1.101,0.594,2.125,0.813,3.25h0.038
			c0.231-1.084,0.51-2.179,0.82-3.212l1.164-3.889h2.188l-3.069,9.1H2.961z"/>
		<path fill="#4D4D4D" d="M10.45,14.039c0.542,0.285,1.408,0.559,2.28,0.559c0.947,0,1.445-0.39,1.445-0.998
			c0-0.543-0.432-0.881-1.521-1.271c-1.515-0.531-2.513-1.373-2.513-2.713c0-1.553,1.31-2.733,3.439-2.733
			c1.039,0,1.785,0.21,2.322,0.464l-0.457,1.652c-0.35-0.183-1.01-0.43-1.891-0.43c-0.89,0-1.322,0.415-1.322,0.864
			c0,0.586,0.498,0.846,1.687,1.315c1.609,0.583,2.354,1.41,2.354,2.724c0,1.516-1.162,2.824-3.664,2.824
			c-1.039,0-2.067-0.298-2.577-0.572L10.45,14.039z"/>
		<path fill="#4D4D4D" d="M18.46,13.805l-0.638,2.334h-2.127l2.777-9.1h2.688l2.839,9.1h-2.213l-0.709-2.334H18.46z M20.77,12.262
			l-0.572-1.93c-0.143-0.533-0.305-1.221-0.438-1.752h-0.046c-0.115,0.548-0.268,1.23-0.402,1.752l-0.557,1.93H20.77z"/>
		<g>
			<polygon fill="#4D4D4D" points="8.427,7.039 8.133,7.039 8.133,7.905 			"/>
			<polygon fill="#4D4D4D" points="9.134,7.039 8.133,10.043 8.133,16.139 10.188,16.139 10.188,7.039 			"/>
		</g>
	</g>
</g>
</svg>
