<?xml version="1.0" encoding="utf-8"?>
<!-- Generator: Adobe Illustrator 15.0.2, SVG Export Plug-In . SVG Version: 6.00 Build 0)  -->
<!DOCTYPE svg PUBLIC "-//W3C//DTD SVG 1.1//EN" "http://www.w3.org/Graphics/SVG/1.1/DTD/svg11.dtd">
<svg version="1.1" id="图层_1" xmlns="http://www.w3.org/2000/svg" xmlns:xlink="http://www.w3.org/1999/xlink" x="0px" y="0px"
	 width="24px" height="24px" viewBox="0 0 24 24" enable-background="new 0 0 24 24" xml:space="preserve">
<g id="图层_3">
	<g>
		<g>
			<path fill="#4D4D4D" d="M10.469,12.854c-0.947-0.24-1.886-0.158-2.817,0.256c-0.934,0.41-1.61,1.031-2.028,1.861
				c-0.42,0.848-0.45,1.682-0.089,2.51c0.361,0.824,1.021,1.391,1.974,1.695c0.992,0.318,1.994,0.268,3-0.162
				c1.01-0.428,1.713-1.099,2.114-2.01c0.402-0.891,0.393-1.742-0.03-2.551C12.168,13.645,11.457,13.111,10.469,12.854z
				 M9.037,17.189c-0.196,0.308-0.475,0.518-0.841,0.637c-0.359,0.123-0.69,0.111-0.995-0.034c-0.304-0.142-0.493-0.364-0.576-0.673
				c-0.081-0.309-0.02-0.614,0.174-0.919c0.186-0.294,0.454-0.499,0.804-0.616c0.352-0.115,0.677-0.111,0.98,0.014
				c0.311,0.135,0.511,0.355,0.602,0.672C9.271,16.582,9.225,16.889,9.037,17.189z M10.296,15.574
				c-0.061,0.111-0.162,0.195-0.293,0.246c-0.134,0.051-0.265,0.053-0.391,0.006c-0.269-0.125-0.322-0.325-0.173-0.602
				c0.066-0.117,0.161-0.199,0.288-0.25c0.13-0.047,0.253-0.05,0.382-0.004c0.115,0.043,0.192,0.123,0.236,0.246
				C10.385,15.335,10.366,15.457,10.296,15.574z"/>
			<path fill="#4D4D4D" d="M20.468,13.357c-0.303-0.467-0.659-0.832-1.069-1.093c-0.41-0.258-0.869-0.469-1.379-0.626
				c-0.104-0.036-0.184-0.062-0.229-0.083c-0.041-0.02-0.096-0.05-0.158-0.099c-0.061-0.051-0.083-0.105-0.061-0.168
				c0.025-0.062,0.045-0.153,0.061-0.267c0.402-1.028,0.402-1.822,0-2.386c-0.41-0.543-1.095-0.815-2.048-0.815
				s-2.053,0.265-3.297,0.789l-0.076,0.026c-0.053,0.019-0.113,0.037-0.183,0.049C11.965,8.699,11.9,8.701,11.832,8.69
				c-0.059-0.008-0.105-0.04-0.13-0.093c-0.028-0.055-0.02-0.144,0.015-0.269c0.397-1.293,0.311-2.226-0.272-2.796
				C10.788,4.87,9.685,4.84,8.146,5.437S5.082,7.092,3.573,8.599C2.43,9.74,1.551,10.892,0.927,12.051
				C0.311,13.212,0,14.307,0,15.333c0,0.964,0.288,1.854,0.868,2.671s1.348,1.488,2.297,2.02c0.953,0.531,2.024,0.947,3.22,1.248
				c1.198,0.299,2.422,0.445,3.687,0.445c1.257,0,2.465-0.138,3.62-0.414c1.154-0.275,2.166-0.646,3.023-1.113
				c0.857-0.461,1.612-0.984,2.256-1.568c0.643-0.586,1.131-1.196,1.459-1.834c0.332-0.641,0.498-1.264,0.498-1.869
				C20.928,14.346,20.775,13.826,20.468,13.357z M15.027,18.402c-1.307,1.062-2.957,1.691-4.944,1.895
				c-1.307,0.127-2.532,0.032-3.676-0.281c-1.147-0.311-2.081-0.795-2.794-1.455c-0.713-0.662-1.108-1.422-1.191-2.276
				c-0.123-1.304,0.467-2.485,1.773-3.541c1.309-1.059,2.957-1.689,4.947-1.897c1.303-0.123,2.526-0.03,3.676,0.283
				c1.146,0.312,2.08,0.8,2.793,1.458c0.714,0.661,1.109,1.42,1.189,2.276C16.925,16.168,16.335,17.348,15.027,18.402z"/>
		</g>
		<path fill="#4D4D4D" d="M18.755,7.621c-0.392-0.431-0.87-0.586-1.43-0.471c-0.216,0.044-0.418,0.01-0.604-0.107
			c-0.188-0.117-0.297-0.28-0.334-0.494c-0.045-0.215-0.009-0.412,0.108-0.597c0.112-0.184,0.278-0.295,0.491-0.339
			c0.539-0.115,1.07-0.091,1.595,0.072c0.524,0.168,0.979,0.457,1.354,0.877c0.373,0.418,0.617,0.903,0.73,1.45
			c0.109,0.55,0.081,1.073-0.089,1.574c-0.07,0.206-0.204,0.355-0.396,0.456c-0.193,0.099-0.389,0.115-0.597,0.053
			c-0.206-0.071-0.358-0.204-0.453-0.396c-0.099-0.188-0.116-0.39-0.057-0.596C19.256,8.544,19.15,8.047,18.755,7.621z"/>
		<path fill="#4D4D4D" d="M23.682,10.591c-0.078,0.242-0.228,0.422-0.451,0.535c-0.228,0.115-0.455,0.133-0.695,0.055
			c-0.244-0.079-0.422-0.23-0.537-0.453c-0.115-0.224-0.137-0.456-0.062-0.696c0.246-0.73,0.293-1.499,0.131-2.303
			c-0.162-0.807-0.519-1.51-1.073-2.117c-0.552-0.614-1.212-1.043-1.979-1.276c-0.766-0.239-1.539-0.275-2.313-0.117
			c-0.255,0.052-0.484,0.01-0.7-0.125c-0.21-0.141-0.346-0.333-0.402-0.585c-0.052-0.251-0.01-0.479,0.127-0.688
			c0.139-0.212,0.334-0.343,0.582-0.397c1.101-0.23,2.19-0.178,3.268,0.155c1.083,0.335,2.008,0.936,2.783,1.8l0,0v0.002
			c0,0,0,0,0-0.002c0.777,0.858,1.279,1.853,1.51,2.979C24.092,8.485,24.031,9.564,23.682,10.591z"/>
	</g>
</g>
</svg>
