<?xml version="1.0" encoding="utf-8"?>
<!-- Generator: Adobe Illustrator 15.0.2, SVG Export Plug-In . SVG Version: 6.00 Build 0)  -->
<!DOCTYPE svg PUBLIC "-//W3C//DTD SVG 1.1//EN" "http://www.w3.org/Graphics/SVG/1.1/DTD/svg11.dtd">
<svg version="1.1" id="图层_1" xmlns="http://www.w3.org/2000/svg" xmlns:xlink="http://www.w3.org/1999/xlink" x="0px" y="0px"
	 width="24px" height="24px" viewBox="0 0 24 24" enable-background="new 0 0 24 24" xml:space="preserve">
<g>
	<path fill="#4D4D4D" d="M8.832,8.881c-0.314,0-0.631,0.208-0.631,0.524c0,0.314,0.316,0.525,0.631,0.525
		c0.315,0,0.523-0.211,0.523-0.525C9.355,9.089,9.147,8.881,8.832,8.881z"/>
	<path fill="#4D4D4D" d="M11.769,9.931c0.316,0,0.524-0.211,0.524-0.525c0-0.316-0.208-0.524-0.524-0.524
		c-0.314,0-0.63,0.208-0.63,0.524C11.139,9.72,11.454,9.931,11.769,9.931z"/>
	<path fill="#4D4D4D" d="M13.28,12.073c-0.21,0-0.421,0.211-0.421,0.418c0,0.213,0.211,0.421,0.421,0.421
		c0.316,0,0.524-0.208,0.524-0.421C13.805,12.284,13.597,12.073,13.28,12.073z"/>
	<path fill="#4D4D4D" d="M11.979,0C5.364,0,0,5.372,0,12c0,6.625,5.364,12,11.979,12C18.596,24,24,18.625,24,12
		C24,5.372,18.596,0,11.979,0z M10.195,14.237c-0.523,0-0.944-0.106-1.47-0.21L7.26,14.763l0.419-1.262
		C6.629,12.766,6,11.819,6,10.667c0-1.998,1.89-3.57,4.195-3.57c2.062,0,3.87,1.256,4.233,2.947
		c-0.134-0.016-0.269-0.024-0.403-0.024c-1.994,0-3.567,1.488-3.567,3.322c0,0.306,0.047,0.599,0.13,0.88
		C10.458,14.231,10.327,14.237,10.195,14.237z M16.531,15.854l0.314,1.049l-1.15-0.63c-0.42,0.105-0.842,0.21-1.26,0.21
		c-1.996,0-3.568-1.365-3.568-3.046c0-1.679,1.572-3.046,3.568-3.046c1.886,0,3.564,1.367,3.564,3.046
		C18,14.384,17.372,15.223,16.531,15.854z"/>
	<path fill="#4D4D4D" d="M15.588,12.073c-0.208,0-0.418,0.211-0.418,0.418c0,0.213,0.21,0.421,0.418,0.421
		c0.313,0,0.524-0.208,0.524-0.421C16.112,12.284,15.901,12.073,15.588,12.073z"/>
</g>
</svg>
