<?xml version="1.0" encoding="utf-8"?>
<!-- Generator: Adobe Illustrator 15.0.2, SVG Export Plug-In . SVG Version: 6.00 Build 0)  -->
<!DOCTYPE svg PUBLIC "-//W3C//DTD SVG 1.1//EN" "http://www.w3.org/Graphics/SVG/1.1/DTD/svg11.dtd">
<svg version="1.1" id="图层_1" xmlns="http://www.w3.org/2000/svg" xmlns:xlink="http://www.w3.org/1999/xlink" x="0px" y="0px"
	 width="24px" height="24px" viewBox="0 0 24 24" enable-background="new 0 0 24 24" xml:space="preserve">
<g id="图层_3">
	<path fill="#4D4D4D" d="M6.02,5.003c-1.053,0-2.016,0.982-2.016,2.006v10.017c0,0.955,0.985,1.973,1.973,1.973h12.104
		c0.919,0,1.915-0.955,1.915-1.988V6.919c0-0.877-0.98-1.916-1.99-1.916H6.02z M18.014,7.003v0.392L12,11.847L6.003,7.395V7.003
		H18.014z M6.003,16.979V9.914l5.354,3.913c0.187,0.155,0.415,0.233,0.643,0.233c0.229,0,0.457-0.078,0.643-0.233l5.371-3.913v7.064
		H6.003z"/>
</g>
</svg>
