<?xml version="1.0" encoding="utf-8"?>
<!-- Generator: Adobe Illustrator 15.0.2, SVG Export Plug-In . SVG Version: 6.00 Build 0)  -->
<!DOCTYPE svg PUBLIC "-//W3C//DTD SVG 1.1//EN" "http://www.w3.org/Graphics/SVG/1.1/DTD/svg11.dtd">
<svg version="1.1" id="图层_1" xmlns="http://www.w3.org/2000/svg" xmlns:xlink="http://www.w3.org/1999/xlink" x="0px" y="0px"
	 width="24px" height="24px" viewBox="0 0 24 24" enable-background="new 0 0 24 24" xml:space="preserve">
<g id="图层_3">
	<g>
		<path fill="#4D4D4D" d="M16.508,5.063c1.942,0,3.521,1.58,3.521,3.522c0,0.833-0.283,1.613-0.819,2.258L19.162,10.9l-0.038,0.054
			l-7.113,7.112c-1.783-1.81-4.883-4.946-7.293-7.357c-0.032-0.032-0.078-0.073-0.102-0.101C4.193,10.011,3.97,9.311,3.97,8.585
			c0-1.942,1.581-3.522,3.524-3.522c1.127,0,2.195,0.55,2.857,1.47L12,8.823l1.648-2.29C14.311,5.613,15.38,5.063,16.508,5.063
			 M16.508,3.032c-1.857,0-3.5,0.914-4.508,2.314c-1.008-1.4-2.648-2.314-4.506-2.314c-3.066,0-5.555,2.486-5.555,5.553
			c0,1.191,0.379,2.291,1.018,3.195c0.105,0.146,0.234,0.275,0.324,0.365C6.896,15.762,12,20.95,12,20.95s7.467-7.468,8.725-8.725
			c0.025-0.025,0.027-0.057,0.047-0.084c0.804-0.965,1.289-2.203,1.289-3.557C22.061,5.519,19.574,3.032,16.508,3.032L16.508,3.032z
			"/>
	</g>
</g>
</svg>
