<?xml version="1.0" encoding="utf-8"?>
<!-- Generator: Adobe Illustrator 15.0.2, SVG Export Plug-In . SVG Version: 6.00 Build 0)  -->
<!DOCTYPE svg PUBLIC "-//W3C//DTD SVG 1.1//EN" "http://www.w3.org/Graphics/SVG/1.1/DTD/svg11.dtd">
<svg version="1.1" id="图层_1" xmlns="http://www.w3.org/2000/svg" xmlns:xlink="http://www.w3.org/1999/xlink" x="0px" y="0px"
	 width="24px" height="24px" viewBox="0 0 24 24" enable-background="new 0 0 24 24" xml:space="preserve">
<g id="图层_3">
	<g>
		<path fill="#4D4D4D" d="M12,24.001c-6.627,0-12-5.373-12-12S5.373-0.001,12-0.001s12,5.375,12,12.002S18.627,24.001,12,24.001z
			 M12,2C6.477,2,2,6.476,2,12.001C2,17.523,6.477,22,12,22c5.523,0,10-4.477,10-9.999C22,6.476,17.523,2,12,2z M10.844,16.831
			c-0.038,0.108-0.095,0.215-0.186,0.301c-0.303,0.283-0.777,0.267-1.061-0.034l-3.429-3.162C5.885,13.632,5.9,13.16,6.202,12.874
			c0.302-0.283,0.777-0.269,1.061,0.035l2.684,2.475l6.706-7.594c0.209-0.359,0.666-0.48,1.025-0.275
			c0.358,0.209,0.48,0.666,0.273,1.025L10.844,16.831z"/>
	</g>
</g>
</svg>
