<?xml version="1.0" encoding="utf-8"?>
<!-- Generator: Adobe Illustrator 15.0.2, SVG Export Plug-In . SVG Version: 6.00 Build 0)  -->
<!DOCTYPE svg PUBLIC "-//W3C//DTD SVG 1.1//EN" "http://www.w3.org/Graphics/SVG/1.1/DTD/svg11.dtd">
<svg version="1.1" id="图层_1" xmlns="http://www.w3.org/2000/svg" xmlns:xlink="http://www.w3.org/1999/xlink" x="0px" y="0px"
	 width="24px" height="24px" viewBox="0 0 24 24" enable-background="new 0 0 24 24" xml:space="preserve">
<g id="图层_3">
	<g>
		<path fill="#4D4D4D" d="M16.05,8.039c0.271,0,0.541,0.019,0.808,0.049c-0.727-3.383-4.34-5.896-8.465-5.896
			C3.779,2.192,0,5.338,0,9.334c0,2.305,1.257,4.197,3.357,5.667l-0.839,2.524l2.933-1.471c1.051,0.207,1.893,0.42,2.94,0.42
			c0.263,0,0.524-0.014,0.783-0.033c-0.165-0.562-0.259-1.147-0.259-1.758C8.916,11.016,12.062,8.039,16.05,8.039z M11.537,5.762
			c0.633,0,1.05,0.417,1.05,1.049c0,0.628-0.417,1.051-1.05,1.051c-0.629,0-1.26-0.423-1.26-1.051
			C10.277,6.179,10.908,5.762,11.537,5.762z M5.665,7.861c-0.629,0-1.264-0.423-1.264-1.051c0-0.632,0.635-1.049,1.264-1.049
			c0.63,0,1.047,0.417,1.047,1.049C6.712,7.438,6.295,7.861,5.665,7.861z"/>
		<path fill="#4D4D4D" d="M24,14.875c0-3.356-3.357-6.093-7.128-6.093c-3.992,0-7.137,2.736-7.137,6.093
			c0,3.361,3.145,6.092,7.137,6.092c0.836,0,1.678-0.209,2.519-0.42l2.303,1.262l-0.631-2.1C22.744,18.445,24,16.768,24,14.875z
			 M14.561,13.824c-0.42,0-0.84-0.415-0.84-0.842c0-0.416,0.42-0.837,0.84-0.837c0.633,0,1.049,0.421,1.049,0.837
			C15.607,13.409,15.193,13.824,14.561,13.824z M19.175,13.824c-0.415,0-0.835-0.415-0.835-0.842c0-0.416,0.42-0.837,0.835-0.837
			c0.628,0,1.05,0.421,1.05,0.837C20.225,13.409,19.803,13.824,19.175,13.824z"/>
	</g>
</g>
</svg>
