<?xml version="1.0" encoding="utf-8"?>
<!-- Generator: Adobe Illustrator 15.0.2, SVG Export Plug-In . SVG Version: 6.00 Build 0)  -->
<!DOCTYPE svg PUBLIC "-//W3C//DTD SVG 1.1//EN" "http://www.w3.org/Graphics/SVG/1.1/DTD/svg11.dtd">
<svg version="1.1" id="图层_1" xmlns="http://www.w3.org/2000/svg" xmlns:xlink="http://www.w3.org/1999/xlink" x="0px" y="0px"
	 width="24px" height="24px" viewBox="0 0 24 24" enable-background="new 0 0 24 24" xml:space="preserve">
<g id="图层_3">
	<path fill="#4D4D4D" d="M22.061,8.585c0-3.066-2.485-5.553-5.553-5.553c-1.857,0-3.5,0.914-4.508,2.314
		c-1.008-1.4-2.648-2.314-4.504-2.314c-3.068,0-5.557,2.486-5.557,5.553c0,1.191,0.379,2.291,1.018,3.195
		c0.137,0.178,0.172,0.244,0.262,0.334c3.617,3.615,8.783,8.836,8.783,8.836s7.465-7.468,8.723-8.725
		c0.025-0.025,0.027-0.057,0.047-0.084C21.576,11.177,22.061,9.938,22.061,8.585z"/>
</g>
</svg>
