<?xml version="1.0" encoding="utf-8"?>
<!-- Generator: Adobe Illustrator 15.0.2, SVG Export Plug-In . SVG Version: 6.00 Build 0)  -->
<!DOCTYPE svg PUBLIC "-//W3C//DTD SVG 1.1//EN" "http://www.w3.org/Graphics/SVG/1.1/DTD/svg11.dtd">
<svg version="1.1" id="图层_1" xmlns="http://www.w3.org/2000/svg" xmlns:xlink="http://www.w3.org/1999/xlink" x="0px" y="0px"
	 width="24px" height="24px" viewBox="0 0 24 24" enable-background="new 0 0 24 24" xml:space="preserve">
<g id="图层_3">
	<g>
		<path fill="#4D4D4D" d="M20.236,10.433h-0.289c-0.062-0.252-0.123-0.494-0.184-0.721c-0.099-0.373-0.984-2.398-1.732-3.271
			c-1-1.168-2.916-1.711-6.031-1.711S6.969,5.272,5.969,6.44c-0.75,0.873-1.635,2.898-1.734,3.271
			c-0.059,0.227-0.121,0.469-0.182,0.721H3.764c-1.57,0-1.9,0.861-1.9,1.584c0,0.318,0.236,0.587,0.555,0.628l1.143,0.144
			C3.314,14.214,3.13,15.805,3.13,17.4v1.902c0,0.35,0.283,0.633,0.635,0.633h1.266c0.352,0,0.635-0.283,0.635-0.633v-0.635h12.672
			v0.635c0,0.35,0.283,0.633,0.633,0.633h1.268c0.351,0,0.636-0.283,0.636-0.633V17.4c0-1.598-0.185-3.188-0.433-4.612l1.144-0.144
			c0.317-0.041,0.556-0.311,0.556-0.628C22.137,11.294,21.807,10.433,20.236,10.433z M5.664,16.77c-0.701,0-1.268-0.568-1.268-1.269
			s0.566-1.269,1.268-1.269c0.699,0,1.268,0.568,1.268,1.269S6.363,16.77,5.664,16.77z M12,12.969c-3.27,0-5.598-0.47-6.992-1.005
			c0.633-3.07,1.574-4.293,1.924-4.699C7.475,6.63,8.742,5.997,12,5.997s4.525,0.633,5.068,1.268
			c0.348,0.406,1.291,1.629,1.924,4.699C17.598,12.499,15.268,12.969,12,12.969z M18.336,16.77c-0.699,0-1.268-0.568-1.268-1.269
			s0.568-1.269,1.268-1.269c0.7,0,1.268,0.568,1.268,1.269S19.035,16.77,18.336,16.77z"/>
	</g>
</g>
</svg>
