<?xml version="1.0" encoding="utf-8"?>
<!-- Generator: Adobe Illustrator 15.0.2, SVG Export Plug-In . SVG Version: 6.00 Build 0)  -->
<!DOCTYPE svg PUBLIC "-//W3C//DTD SVG 1.1//EN" "http://www.w3.org/Graphics/SVG/1.1/DTD/svg11.dtd">
<svg version="1.1" id="图层_1" xmlns="http://www.w3.org/2000/svg" xmlns:xlink="http://www.w3.org/1999/xlink" x="0px" y="0px"
	 width="24px" height="24px" viewBox="0 0 24 24" enable-background="new 0 0 24 24" xml:space="preserve">
<g>
	<path fill="#4D4D4D" d="M10.863,13.487c-0.062,0.025-0.11,0.066-0.144,0.125c-0.075,0.139-0.048,0.238,0.087,0.301
		c0.062,0.023,0.128,0.022,0.195-0.003c0.064-0.025,0.115-0.067,0.146-0.123c0.035-0.059,0.044-0.12,0.024-0.179
		c-0.022-0.061-0.061-0.102-0.118-0.123C10.99,13.463,10.929,13.464,10.863,13.487z"/>
	<path fill="#4D4D4D" d="M12.409,11.563c-0.575-0.156-1.187-0.203-1.838-0.141c-0.995,0.104-1.819,0.419-2.474,0.948
		c-0.653,0.528-0.948,1.118-0.887,1.771c0.041,0.428,0.239,0.808,0.596,1.139c0.356,0.33,0.823,0.572,1.396,0.728
		c0.572,0.157,1.186,0.204,1.838,0.141c0.994-0.101,1.82-0.417,2.473-0.946c0.654-0.528,0.949-1.118,0.887-1.771
		c-0.04-0.428-0.238-0.807-0.594-1.138C13.449,11.964,12.982,11.72,12.409,11.563z M12.311,14.502
		c-0.2,0.456-0.552,0.791-1.057,1.005c-0.503,0.215-1.004,0.24-1.5,0.081c-0.477-0.153-0.807-0.436-0.986-0.848
		c-0.182-0.414-0.166-0.831,0.044-1.255c0.209-0.416,0.548-0.726,1.015-0.931c0.465-0.207,0.935-0.249,1.408-0.128
		c0.494,0.129,0.85,0.396,1.062,0.8C12.508,13.63,12.512,14.057,12.311,14.502z"/>
	<path fill="#4D4D4D" d="M10.291,13.799c-0.151-0.062-0.314-0.064-0.49-0.007c-0.174,0.059-0.309,0.162-0.401,0.309
		c-0.097,0.152-0.128,0.305-0.087,0.459s0.137,0.266,0.288,0.336c0.152,0.073,0.317,0.079,0.497,0.018
		c0.184-0.06,0.322-0.164,0.421-0.318c0.094-0.15,0.117-0.304,0.073-0.461C10.547,13.977,10.447,13.866,10.291,13.799z"/>
	<path fill="#4D4D4D" d="M11.979,0C5.364,0,0,5.372,0,12c0,6.625,5.364,12,11.979,12C18.596,24,24,18.625,24,12
		C24,5.372,18.596,0,11.979,0z M16.215,14.394c-0.164,0.318-0.408,0.623-0.73,0.916c-0.32,0.293-0.697,0.555-1.127,0.785
		c-0.43,0.233-0.936,0.419-1.512,0.557c-0.578,0.139-1.182,0.207-1.811,0.207c-0.632,0-1.244-0.074-1.843-0.223
		c-0.598-0.15-1.134-0.358-1.61-0.624c-0.475-0.266-0.857-0.602-1.148-1.01C6.145,14.594,6,14.148,6,13.667
		c0-0.514,0.155-1.061,0.463-1.642c0.312-0.579,0.752-1.155,1.324-1.726c0.754-0.754,1.516-1.281,2.285-1.58s1.32-0.283,1.649,0.047
		c0.292,0.285,0.335,0.752,0.136,1.398c-0.017,0.062-0.021,0.107-0.007,0.135c0.013,0.025,0.036,0.042,0.065,0.046
		c0.033,0.005,0.066,0.005,0.098-0.003c0.035-0.006,0.065-0.016,0.092-0.024l0.038-0.013c0.622-0.263,1.172-0.395,1.648-0.395
		s0.819,0.136,1.024,0.407c0.201,0.282,0.201,0.679,0,1.192c-0.008,0.057-0.018,0.103-0.031,0.134c-0.011,0.031,0,0.059,0.031,0.084
		c0.031,0.024,0.059,0.04,0.078,0.05c0.023,0.01,0.062,0.023,0.115,0.041c0.255,0.078,0.484,0.184,0.689,0.312
		c0.205,0.131,0.383,0.314,0.535,0.547c0.153,0.234,0.229,0.494,0.229,0.779C16.463,13.762,16.381,14.073,16.215,14.394z
		 M15.377,9.811c-0.195-0.216-0.435-0.293-0.715-0.235c-0.107,0.021-0.209,0.005-0.302-0.054c-0.094-0.059-0.148-0.14-0.167-0.247
		c-0.022-0.107-0.004-0.206,0.055-0.299c0.057-0.092,0.139-0.146,0.246-0.169c0.269-0.058,0.534-0.046,0.797,0.036
		c0.262,0.084,0.49,0.229,0.676,0.438c0.188,0.209,0.31,0.452,0.366,0.726c0.055,0.274,0.04,0.536-0.044,0.787
		c-0.035,0.103-0.103,0.178-0.198,0.228c-0.097,0.05-0.194,0.058-0.298,0.026c-0.104-0.035-0.18-0.102-0.227-0.198
		c-0.049-0.094-0.059-0.194-0.028-0.298C15.628,10.272,15.576,10.023,15.377,9.811z M17.841,11.296
		c-0.039,0.121-0.114,0.211-0.226,0.268c-0.113,0.057-0.228,0.066-0.348,0.027c-0.123-0.04-0.211-0.115-0.27-0.227
		c-0.057-0.112-0.068-0.229-0.031-0.349c0.123-0.366,0.146-0.749,0.065-1.151c-0.081-0.403-0.259-0.755-0.536-1.059
		c-0.276-0.307-0.606-0.521-0.99-0.639c-0.383-0.119-0.77-0.137-1.157-0.059C14.223,8.136,14.107,8.114,14,8.047
		c-0.105-0.07-0.173-0.167-0.201-0.292c-0.025-0.126-0.005-0.24,0.062-0.344c0.07-0.106,0.168-0.172,0.292-0.199
		c0.55-0.115,1.095-0.089,1.634,0.078c0.541,0.167,1.004,0.467,1.391,0.899c0.39,0.429,0.641,0.927,0.756,1.489
		C18.046,10.243,18.016,10.782,17.841,11.296z"/>
</g>
</svg>
