<?xml version="1.0" encoding="utf-8"?>
<!-- Generator: Adobe Illustrator 15.0.2, SVG Export Plug-In . SVG Version: 6.00 Build 0)  -->
<!DOCTYPE svg PUBLIC "-//W3C//DTD SVG 1.1//EN" "http://www.w3.org/Graphics/SVG/1.1/DTD/svg11.dtd">
<svg version="1.1" id="图层_1" xmlns="http://www.w3.org/2000/svg" xmlns:xlink="http://www.w3.org/1999/xlink" x="0px" y="0px"
	 width="24px" height="24px" viewBox="0 0 24 24" enable-background="new 0 0 24 24" xml:space="preserve">
<g id="图层_3">
	<path fill="#4D4D4D" d="M20.273,0.96H3.727c-1.522,0-2.758,1.235-2.758,2.758v11.406c0,1.522,1.235,2.758,2.758,2.758h1.295v5.142
		L12,17.882h8.273c1.522,0,2.758-1.233,2.758-2.758V3.718C23.031,2.195,21.797,0.96,20.273,0.96z M13.249,14.284h-2.458v-2.41h2.458
		V14.284z M15.521,7.625c-0.209,0.39-0.635,0.865-1.279,1.428c-0.447,0.395-0.73,0.712-0.848,0.951
		c-0.119,0.239-0.177,0.551-0.177,0.936h-2.53v-0.281c0-0.479,0.05-0.867,0.147-1.165c0.097-0.299,0.242-0.57,0.436-0.817
		c0.192-0.247,0.626-0.681,1.301-1.303c0.359-0.325,0.539-0.624,0.539-0.895s-0.072-0.482-0.217-0.633
		C12.749,5.695,12.532,5.62,12.24,5.62c-0.315,0-0.576,0.116-0.782,0.348c-0.206,0.232-0.339,0.636-0.397,1.214L8.479,6.825
		c0.09-1.055,0.434-1.904,1.035-2.548s1.523-0.966,2.766-0.966c0.968,0,1.748,0.225,2.344,0.674
		c0.808,0.606,1.211,1.415,1.211,2.426C15.834,6.831,15.729,7.235,15.521,7.625z"/>
</g>
</svg>
