<?xml version="1.0" encoding="utf-8"?>
<!-- Generator: Adobe Illustrator 15.0.2, SVG Export Plug-In . SVG Version: 6.00 Build 0)  -->
<!DOCTYPE svg PUBLIC "-//W3C//DTD SVG 1.1//EN" "http://www.w3.org/Graphics/SVG/1.1/DTD/svg11.dtd">
<svg version="1.1" id="图层_1" xmlns="http://www.w3.org/2000/svg" xmlns:xlink="http://www.w3.org/1999/xlink" x="0px" y="0px"
	 width="24px" height="24px" viewBox="0 0 24 24" enable-background="new 0 0 24 24" xml:space="preserve">
<g>
	<g>
		<path fill-rule="evenodd" clip-rule="evenodd" fill="#4D4D4D" d="M14.025,10.02c0.135,0,0.27,0.009,0.403,0.024
			c-0.363-1.691-2.171-2.947-4.233-2.947C7.89,7.097,6,8.669,6,10.667c0,1.152,0.629,2.099,1.679,2.834L7.26,14.763l1.466-0.735
			c0.525,0.104,0.946,0.21,1.47,0.21c0.132,0,0.263-0.006,0.393-0.016c-0.083-0.281-0.13-0.574-0.13-0.88
			C10.458,11.508,12.031,10.02,14.025,10.02z M11.769,8.881c0.316,0,0.524,0.208,0.524,0.524c0,0.314-0.208,0.525-0.524,0.525
			c-0.314,0-0.63-0.211-0.63-0.525C11.139,9.089,11.454,8.881,11.769,8.881z M8.832,9.931c-0.314,0-0.631-0.211-0.631-0.525
			c0-0.316,0.316-0.524,0.631-0.524c0.315,0,0.523,0.208,0.523,0.524C9.355,9.72,9.147,9.931,8.832,9.931z"/>
		<path fill-rule="evenodd" clip-rule="evenodd" fill="#4D4D4D" d="M18,13.438c0-1.679-1.679-3.046-3.564-3.046
			c-1.996,0-3.568,1.367-3.568,3.046c0,1.681,1.572,3.046,3.568,3.046c0.418,0,0.84-0.104,1.26-0.21l1.15,0.63l-0.314-1.049
			C17.372,15.223,18,14.384,18,13.438z M13.28,12.912c-0.21,0-0.421-0.208-0.421-0.421c0-0.207,0.211-0.418,0.421-0.418
			c0.316,0,0.524,0.211,0.524,0.418C13.805,12.704,13.597,12.912,13.28,12.912z M15.588,12.912c-0.208,0-0.418-0.208-0.418-0.421
			c0-0.207,0.21-0.418,0.418-0.418c0.313,0,0.524,0.211,0.524,0.418C16.112,12.704,15.901,12.912,15.588,12.912z"/>
	</g>
	<g>
		<path fill="#4D4D4D" d="M0,12c0,6.625,5.364,12,11.979,12C18.596,24,24,18.625,24,12c0-6.628-5.404-12-12.021-12
			C5.364,0,0,5.372,0,12z M0.563,11.973c0-6.33,5.124-11.463,11.443-11.463c6.32,0,11.442,5.133,11.442,11.463
			s-5.122,11.462-11.442,11.462C5.687,23.435,0.563,18.303,0.563,11.973z"/>
	</g>
</g>
</svg>
