<?xml version="1.0" encoding="utf-8"?>
<!-- Generator: Adobe Illustrator 15.0.2, SVG Export Plug-In . SVG Version: 6.00 Build 0)  -->
<!DOCTYPE svg PUBLIC "-//W3C//DTD SVG 1.1//EN" "http://www.w3.org/Graphics/SVG/1.1/DTD/svg11.dtd">
<svg version="1.1" id="图层_1" xmlns="http://www.w3.org/2000/svg" xmlns:xlink="http://www.w3.org/1999/xlink" x="0px" y="0px"
	 width="24px" height="24px" viewBox="0 0 24 24" enable-background="new 0 0 24 24" xml:space="preserve">
<g id="图层_3">
	<g>
		<path fill="#4D4D4D" d="M3.5,13h1C4.775,13,5,12.775,5,12.5C5,12.224,4.775,12,4.5,12h-1C3.224,12,3,12.224,3,12.5
			C3,12.775,3.224,13,3.5,13z"/>
		<path fill="#4D4D4D" d="M5,16.5C5,16.225,4.775,16,4.5,16h-1C3.224,16,3,16.225,3,16.5S3.224,17,3.5,17h1
			C4.775,17,5,16.775,5,16.5z"/>
		<path fill="#4D4D4D" d="M3.5,9h1C4.775,9,5,8.775,5,8.5C5,8.224,4.775,8,4.5,8h-1C3.224,8,3,8.224,3,8.5C3,8.775,3.224,9,3.5,9z"
			/>
		<path fill="#4D4D4D" d="M20.5,10.922c0.275,0,0.5-0.224,0.5-0.5V7.438c0-0.276-0.225-0.5-0.5-0.5H19V5H6C5.447,5,5,5,5,4.447
			C5,3.894,5.447,4,6,4h13.014c-0.348-0.596-0.926-1-1.664-1H6C4.896,3,4,3.896,4,5v2h0.5C5.328,7,6,7.672,6,8.5S5.328,10,4.5,10H4
			v1h0.5C5.328,11,6,11.672,6,12.5S5.328,14,4.5,14H4v1h0.5C5.328,15,6,15.672,6,16.5S5.328,18,4.5,18l-0.504,0.009L4,19
			c0,1.104,0.896,2,2,2h11c1.104,0,2-0.896,2-2v-3.008h1.5c0.275,0,0.5-0.225,0.5-0.5v-2.984c0-0.276-0.225-0.5-0.5-0.5H19v-1.086
			H20.5z M12.054,17.887c-1.289-2.633-3.502-4.043-3.502-6.475c0-1.934,1.568-3.502,3.502-3.502s3.502,1.568,3.502,3.502
			C15.557,14.057,13.268,15.287,12.054,17.887z"/>
		<path fill="#4D4D4D" d="M13.542,11.472c0-0.825-0.668-1.493-1.494-1.493c-0.824,0-1.493,0.668-1.493,1.493
			c0,0.825,0.669,1.834,1.493,1.834C12.874,13.307,13.542,12.297,13.542,11.472z"/>
	</g>
</g>
</svg>
