<?xml version="1.0" encoding="utf-8"?>
<!-- Generator: Adobe Illustrator 15.0.2, SVG Export Plug-In . SVG Version: 6.00 Build 0)  -->
<!DOCTYPE svg PUBLIC "-//W3C//DTD SVG 1.1//EN" "http://www.w3.org/Graphics/SVG/1.1/DTD/svg11.dtd">
<svg version="1.1" id="图层_1" xmlns="http://www.w3.org/2000/svg" xmlns:xlink="http://www.w3.org/1999/xlink" x="0px" y="0px"
	 width="24px" height="24px" viewBox="0 0 24 24" enable-background="new 0 0 24 24" xml:space="preserve">
<g id="图层_3">
	<path fill="#4D4D4D" d="M13.339,12l8.384-8.382c0.37-0.37,0.37-0.97,0-1.341c-0.371-0.37-0.97-0.37-1.342,0L12,10.661L3.617,2.277
		c-0.371-0.37-0.97-0.37-1.34,0c-0.37,0.371-0.37,0.971,0,1.341L10.661,12l-8.384,8.382c-0.37,0.371-0.37,0.968,0,1.341
		C2.464,21.904,2.705,22,2.948,22c0.243,0,0.483-0.096,0.669-0.277L12,13.34l8.381,8.383C20.568,21.904,20.809,22,21.053,22
		c0.242,0,0.483-0.096,0.67-0.277c0.37-0.373,0.37-0.97,0-1.341L13.339,12z"/>
</g>
</svg>
