<?xml version="1.0" encoding="utf-8"?>
<!-- Generator: Adobe Illustrator 15.0.2, SVG Export Plug-In . SVG Version: 6.00 Build 0)  -->
<!DOCTYPE svg PUBLIC "-//W3C//DTD SVG 1.1//EN" "http://www.w3.org/Graphics/SVG/1.1/DTD/svg11.dtd">
<svg version="1.1" id="图层_1" xmlns="http://www.w3.org/2000/svg" xmlns:xlink="http://www.w3.org/1999/xlink" x="0px" y="0px"
	 width="24px" height="24px" viewBox="0 0 24 24" enable-background="new 0 0 24 24" xml:space="preserve">
<g id="图层_3">
	<g>
		<path fill="#4D4D4D" d="M14.9,20.805l-2.915-2.629c-0.49-0.457-1.247-1.477-1.247-3.104v-8.94L9.687,5.103
			c-0.477-0.476-1.254-0.476-1.729,0L7.049,6.006l-4.67,4.65c-0.476,0.471-0.476,1.248,0,1.721l7.546,7.512
			c0.475,0.473,1.372,0.936,2.046,0.916H14.9z"/>
		<path fill="#4D4D4D" d="M20.904,3.168h-7.838c-0.67,0-1.072,0.404-1.072,1.074v10.936c0,0.672,0.289,1.65,0.779,2.11l3.274,3.203
			c0.481,0.448,1.302,0.454,1.79,0.016c0.008-0.008-0.021-0.015-0.013-0.024l3.475-3.189c0.487-0.462,0.679-1.443,0.679-2.115V4.242
			C21.979,3.572,21.578,3.168,20.904,3.168z M16.95,19.009c-0.696,0-1.261-0.565-1.261-1.262c0-0.697,0.563-1.263,1.261-1.263
			c0.696,0,1.261,0.564,1.261,1.263C18.211,18.443,17.646,19.009,16.95,19.009z"/>
	</g>
</g>
</svg>
