<?xml version="1.0" encoding="utf-8"?>
<!-- Generator: Adobe Illustrator 15.0.2, SVG Export Plug-In . SVG Version: 6.00 Build 0)  -->
<!DOCTYPE svg PUBLIC "-//W3C//DTD SVG 1.1//EN" "http://www.w3.org/Graphics/SVG/1.1/DTD/svg11.dtd">
<svg version="1.1" id="图层_1" xmlns="http://www.w3.org/2000/svg" xmlns:xlink="http://www.w3.org/1999/xlink" x="0px" y="0px"
	 width="24px" height="24px" viewBox="0 0 24 24" enable-background="new 0 0 24 24" xml:space="preserve">
<g id="图层_3">
	<g>
		<path fill="#4D4D4D" d="M3,5.25c0,0,3.171,0,5.625,0c1.549,0,2.812,1.663,2.812,2.25c0,0.555,0,13.5,0,13.5
			s-1.325-1.125-2.926-1.125c-2.438,0-5.512,0-5.512,0L3,5.25L3,5.25z"/>
		<path fill="#4D4D4D" d="M18.359,5.25l2.078,13.5L16.5,19.875c2.199,0,4.5,0,4.5,0V5.25C21,5.25,19.83,5.25,18.359,5.25z"/>
		<path fill="#4D4D4D" d="M12.562,7.5c0-0.562,0.516-1.641,1.145-2.269C14.686,4.252,17.062,3,17.062,3l1.125,14.625L12.562,21
			C12.562,21,12.562,8.062,12.562,7.5z"/>
	</g>
</g>
</svg>
